<svg width="838" height="1320" viewBox="0 0 838 1320" fill="none" xmlns="http://www.w3.org/2000/svg">
<g id="Group 30">
<g id="Group 2">
<g id="iPhone-X-Mockup">
<g id="phone">
<g id="body" filter="url(#filter0_d_0_4910)">
<path fill-rule="evenodd" clip-rule="evenodd" d="M177.552 111.139H560.018C596.699 111.139 626.435 139.61 626.435 174.73V1045.27C626.435 1080.39 596.699 1108.86 560.018 1108.86H177.552C140.871 1108.86 111.136 1080.39 111.136 1045.27V174.73C111.136 139.61 140.871 111.139 177.552 111.139Z" fill="#213648"/>
</g>
<g id="frame">
<path id="reflect-frame-top" opacity="0.595562" fill-rule="evenodd" clip-rule="evenodd" d="M561.497 110H175.845C157.84 111.098 141.235 119.314 126.029 134.648C135.808 126.112 153.25 114.689 176.309 114.689C176.309 114.689 545.66 114.689 561.033 114.689C584.093 114.689 601.534 126.112 611.313 134.648C596.108 119.314 579.502 111.098 561.497 110Z" fill="url(#paint0_linear_0_4910)" fill-opacity="0.65"/>
<path id="reflect-frame-right" opacity="0.75" fill-rule="evenodd" clip-rule="evenodd" d="M615.999 1035.34V179.964C615.999 157.013 607.564 148.529 602.532 143.081C597.5 137.633 597.286 134.854 604.516 138.968C611.746 143.081 626.207 155.061 626.207 179.964V1035.34C626.207 1060.24 611.746 1072.22 604.516 1076.34C597.286 1080.45 597.5 1077.67 602.532 1072.22C607.564 1066.78 615.999 1058.29 615.999 1035.34Z" fill="url(#paint1_linear_0_4910)"/>
<path id="reflect-frame-left" opacity="0.75" fill-rule="evenodd" clip-rule="evenodd" d="M121.344 1035.34V179.964C121.344 157.013 129.779 148.529 134.811 143.081C139.842 137.633 140.057 134.854 132.827 138.968C125.597 143.081 111.136 155.061 111.136 179.964V1035.34C111.136 1060.24 125.597 1072.22 132.827 1076.34C140.057 1080.45 139.842 1077.67 134.811 1072.22C129.779 1066.78 121.344 1058.29 121.344 1035.34Z" fill="url(#paint2_linear_0_4910)"/>
</g>
<g id="controls">
<path id="vol+" fill-rule="evenodd" clip-rule="evenodd" d="M106 317.113C106 314.904 107.791 313.113 110 313.113H111.929C114.138 313.113 115.929 314.904 115.929 317.113V437.814C115.929 440.024 114.138 441.814 111.929 441.814H110C107.791 441.814 106 440.024 106 437.814V317.113Z" fill="#2E423C"/>
<path id="power" fill-rule="evenodd" clip-rule="evenodd" d="M621.071 422.086C621.071 419.877 622.862 418.086 625.071 418.086H627C629.209 418.086 631 419.877 631 422.086V507.987C631 510.196 629.209 511.987 627 511.987H625.071C622.862 511.987 621.071 510.196 621.071 507.987V422.086Z" fill="#2E423C"/>
</g>
</g>
<g id="Screen" clip-path="url(#clip0_0_4910)">
<path id="Screen Mask" fill-rule="evenodd" clip-rule="evenodd" d="M323.352 134.889L174.54 134.889C152.331 134.889 136.148 150.016 136.148 169.772V1014.55C136.148 1040.31 161.153 1063.13 189.427 1063.13H548.093C575.328 1063.13 601.371 1040.13 601.371 1014.55V172.055C601.371 148.376 583.792 135.03 562.98 134.889L411.808 134.889C411.235 134.983 400.851 139.252 396.462 150.016C392.073 160.779 383.242 169.359 373.573 169.359H362.343C357.747 169.359 345.647 164.899 339.521 150.016C333.394 135.132 323.925 134.983 323.352 134.889Z" fill="white"/>
<mask id="mask0_0_4910" style="mask-type:luminance" maskUnits="userSpaceOnUse" x="136" y="134" width="466" height="930">
<path id="Screen Mask_2" fill-rule="evenodd" clip-rule="evenodd" d="M323.352 134.889L174.54 134.889C152.331 134.889 136.148 150.016 136.148 169.772V1014.55C136.148 1040.31 161.153 1063.13 189.427 1063.13H548.093C575.328 1063.13 601.371 1040.13 601.371 1014.55V172.055C601.371 148.376 583.792 135.03 562.98 134.889L411.808 134.889C411.235 134.983 400.851 139.252 396.462 150.016C392.073 160.779 383.242 169.359 373.573 169.359H362.343C357.747 169.359 345.647 164.899 339.521 150.016C333.394 135.132 323.925 134.983 323.352 134.889Z" fill="white"/>
</mask>
<g mask="url(#mask0_0_4910)">
<path id="Rectangle" d="M136 134.889H602V1064.89H136V134.889Z" fill="url(#paint3_linear_0_4910)"/>
<path id="12:49" d="M292.16 392L297.344 357.344H289.312L290.08 352.064C292.661 352.064 294.784 351.819 296.448 351.328C298.133 350.816 299.435 350.091 300.352 349.152C301.291 348.192 301.941 347.051 302.304 345.728H308.384L301.504 392H292.16ZM312.373 392L313.013 387.392L313.365 385.024C313.749 382.293 314.645 379.979 316.053 378.08C317.461 376.181 319.146 374.571 321.109 373.248C323.093 371.904 325.162 370.72 327.317 369.696C329.493 368.672 331.541 367.669 333.461 366.688C335.402 365.707 337.024 364.619 338.325 363.424C339.648 362.229 340.426 360.8 340.661 359.136C340.917 357.28 340.501 355.765 339.413 354.592C338.346 353.419 336.736 352.832 334.581 352.832C333.066 352.832 331.658 353.131 330.357 353.728C329.077 354.325 327.946 355.232 326.965 356.448C326.005 357.643 325.28 359.136 324.789 360.928H315.925C316.373 357.984 317.418 355.317 319.061 352.928C320.704 350.517 322.933 348.608 325.749 347.2C328.565 345.792 331.946 345.088 335.893 345.088C339.306 345.088 342.154 345.675 344.437 346.848C346.741 348.021 348.405 349.653 349.429 351.744C350.474 353.835 350.794 356.277 350.389 359.072C350.005 361.781 349.13 364.064 347.765 365.92C346.4 367.776 344.757 369.333 342.837 370.592C340.917 371.829 338.901 372.917 336.789 373.856C334.698 374.773 332.714 375.68 330.837 376.576C328.96 377.472 327.381 378.475 326.101 379.584C324.842 380.693 324.106 382.069 323.893 383.712L323.829 384.128H346.837L345.717 392H312.373ZM355.223 369.728L356.695 359.712H366.807L365.303 369.728H355.223ZM351.927 391.808L353.431 381.824H363.543L362.039 391.808H351.927ZM389.242 392L390.778 381.76H370.138L371.29 374.08L395.898 345.728H404.954L400.826 373.92H407.706L406.522 381.76H399.578L398.074 392H389.242ZM379.834 373.92H391.962L394.458 356.96L379.834 373.92ZM426.369 392.704C423.531 392.704 420.961 392.149 418.657 391.04C416.374 389.931 414.603 388.373 413.345 386.368C412.086 384.341 411.563 381.973 411.777 379.264H420.577C420.705 381.056 421.323 382.517 422.433 383.648C423.563 384.757 425.099 385.312 427.041 385.312C429.174 385.312 431.126 384.789 432.897 383.744C434.667 382.699 436.118 381.035 437.249 378.752C438.401 376.469 439.115 373.483 439.393 369.792C438.646 370.923 437.697 371.915 436.545 372.768C435.414 373.6 434.123 374.251 432.673 374.72C431.243 375.168 429.697 375.392 428.033 375.392C424.961 375.392 422.326 374.805 420.129 373.632C417.931 372.437 416.31 370.752 415.265 368.576C414.219 366.379 413.91 363.776 414.337 360.768C414.763 357.739 415.851 355.04 417.601 352.672C419.35 350.304 421.601 348.448 424.353 347.104C427.105 345.76 430.187 345.088 433.601 345.088C437.462 345.088 440.651 346.027 443.169 347.904C445.686 349.76 447.446 352.405 448.449 355.84C449.473 359.253 449.654 363.275 448.993 367.904C448.225 373.429 446.817 378.037 444.769 381.728C442.721 385.397 440.129 388.149 436.993 389.984C433.878 391.797 430.337 392.704 426.369 392.704ZM430.657 367.968C431.915 367.968 433.174 367.68 434.433 367.104C435.713 366.507 436.801 365.76 437.697 364.864C438.593 363.968 439.105 363.04 439.233 362.08C439.531 360.011 439.457 358.24 439.009 356.768C438.582 355.275 437.835 354.133 436.769 353.344C435.723 352.555 434.433 352.16 432.897 352.16C431.489 352.16 430.177 352.501 428.961 353.184C427.745 353.867 426.731 354.827 425.921 356.064C425.11 357.301 424.587 358.731 424.353 360.352C424.011 362.763 424.427 364.64 425.601 365.984C426.795 367.307 428.481 367.968 430.657 367.968Z" fill="white"/>
</g>
</g>
</g>
</g>
<g id="Group 29" clip-path="url(#clip1_0_4910)">
<g id="Rectangle_2" filter="url(#filter1_d_0_4910)">
<rect x="150" y="444" width="436" height="174" rx="5" fill="#FBFCFE"/>
</g>
<g id="Group 28" clip-path="url(#clip2_0_4910)">
<path id="PayAPI" d="M182.89 496L185.04 481.54H190.23C191.25 481.54 192.137 481.723 192.89 482.09C193.65 482.45 194.213 482.983 194.58 483.69C194.947 484.397 195.053 485.26 194.9 486.28C194.76 487.24 194.43 488.06 193.91 488.74C193.397 489.42 192.74 489.94 191.94 490.3C191.14 490.66 190.233 490.84 189.22 490.84H186.58L185.81 496H182.89ZM186.88 488.58H189.48C189.947 488.58 190.377 488.473 190.77 488.26C191.163 488.047 191.487 487.757 191.74 487.39C192 487.017 192.163 486.597 192.23 486.13C192.33 485.41 192.177 484.84 191.77 484.42C191.363 483.993 190.82 483.78 190.14 483.78H187.59L186.88 488.58ZM197.988 496.2C197.341 496.2 196.778 496.077 196.298 495.83C195.825 495.583 195.475 495.227 195.248 494.76C195.021 494.287 194.951 493.713 195.038 493.04C195.211 491.907 195.755 491.047 196.668 490.46C197.581 489.867 198.928 489.56 200.708 489.54L201.948 489.52L202.038 488.9C202.111 488.413 202.018 488.047 201.758 487.8C201.505 487.547 201.125 487.423 200.618 487.43C200.211 487.437 199.805 487.54 199.398 487.74C198.991 487.94 198.681 488.273 198.468 488.74H196.078C196.225 488.027 196.528 487.427 196.988 486.94C197.455 486.453 198.038 486.087 198.738 485.84C199.438 485.587 200.208 485.46 201.048 485.46C202.075 485.46 202.878 485.597 203.458 485.87C204.045 486.143 204.441 486.527 204.648 487.02C204.861 487.507 204.921 488.077 204.828 488.73L203.748 496H201.338L201.358 494.25C200.898 494.997 200.395 495.51 199.848 495.79C199.301 496.063 198.681 496.2 197.988 496.2ZM199.238 494.28C199.491 494.28 199.741 494.233 199.988 494.14C200.241 494.04 200.475 493.91 200.688 493.75C200.901 493.583 201.078 493.397 201.218 493.19C201.365 492.983 201.458 492.77 201.498 492.55L201.718 491.02L200.718 491.04C200.258 491.047 199.818 491.107 199.398 491.22C198.985 491.327 198.635 491.503 198.348 491.75C198.061 491.997 197.885 492.33 197.818 492.75C197.758 493.23 197.865 493.607 198.138 493.88C198.411 494.147 198.778 494.28 199.238 494.28ZM207.055 499.3C206.368 499.3 205.888 499.24 205.615 499.12C205.348 499.007 205.215 498.95 205.215 498.95L205.485 497.09L206.485 497.13C207.065 497.163 207.505 497.117 207.805 496.99C208.105 496.87 208.315 496.723 208.435 496.55C208.562 496.377 208.652 496.24 208.705 496.14L208.975 495.57L206.525 485.66H209.385L210.765 492.4L214.165 485.66H216.985L211.405 496.06C210.918 496.94 210.442 497.613 209.975 498.08C209.508 498.547 209.035 498.867 208.555 499.04C208.082 499.213 207.582 499.3 207.055 499.3ZM215.121 496L222.291 481.54H225.321L228.191 496H225.321L224.691 492.65H219.661L218.011 496H215.121ZM220.691 490.1H224.381L223.401 484.36L220.691 490.1ZM230.39 496L232.54 481.54H237.73C238.75 481.54 239.637 481.723 240.39 482.09C241.15 482.45 241.713 482.983 242.08 483.69C242.447 484.397 242.553 485.26 242.4 486.28C242.26 487.24 241.93 488.06 241.41 488.74C240.897 489.42 240.24 489.94 239.44 490.3C238.64 490.66 237.733 490.84 236.72 490.84H234.08L233.31 496H230.39ZM234.38 488.58H236.98C237.447 488.58 237.877 488.473 238.27 488.26C238.663 488.047 238.987 487.757 239.24 487.39C239.5 487.017 239.663 486.597 239.73 486.13C239.83 485.41 239.677 484.84 239.27 484.42C238.863 483.993 238.32 483.78 237.64 483.78H235.09L234.38 488.58ZM243.242 496L245.382 481.54H248.272L246.142 496H243.242Z" fill="#BA4270"/>
<path id="Just Now" opacity="0.5" d="M476.042 496.2C475.562 496.2 475.116 496.14 474.702 496.02C474.289 495.9 474.016 495.81 473.882 495.75L474.252 493.98C474.446 494.053 474.659 494.147 474.892 494.26C475.132 494.367 475.439 494.42 475.812 494.42C476.432 494.42 476.882 494.24 477.162 493.88C477.449 493.52 477.649 492.913 477.762 492.06L479.292 481.54H481.082L479.492 492.59C479.379 493.357 479.199 494.01 478.952 494.55C478.712 495.09 478.359 495.5 477.892 495.78C477.432 496.06 476.816 496.2 476.042 496.2ZM485.73 496.2C485.223 496.193 484.753 496.117 484.32 495.97C483.887 495.817 483.513 495.593 483.2 495.3C482.893 495.007 482.67 494.643 482.53 494.21C482.397 493.77 482.37 493.26 482.45 492.68L483.43 485.66H485.25L484.29 492.49C484.19 493.163 484.307 493.71 484.64 494.13C484.973 494.55 485.537 494.76 486.33 494.76C487.043 494.76 487.643 494.563 488.13 494.17C488.623 493.77 488.923 493.177 489.03 492.39L489.98 485.66H491.78L490.32 496H488.9L488.98 494.02C488.793 494.54 488.53 494.96 488.19 495.28C487.857 495.6 487.477 495.837 487.05 495.99C486.63 496.137 486.19 496.207 485.73 496.2ZM496.693 496.2C496.006 496.2 495.383 496.09 494.823 495.87C494.27 495.643 493.83 495.293 493.503 494.82C493.183 494.34 493.026 493.73 493.033 492.99H494.673C494.7 493.397 494.81 493.737 495.003 494.01C495.196 494.277 495.453 494.48 495.773 494.62C496.1 494.753 496.47 494.82 496.883 494.82C497.536 494.82 498.083 494.69 498.523 494.43C498.963 494.17 499.22 493.77 499.293 493.23C499.346 492.85 499.283 492.547 499.103 492.32C498.923 492.087 498.616 491.917 498.183 491.81L496.233 491.28C495.466 491.08 494.876 490.767 494.463 490.34C494.05 489.913 493.893 489.317 493.993 488.55C494.073 487.943 494.286 487.41 494.633 486.95C494.98 486.49 495.45 486.127 496.043 485.86C496.643 485.593 497.356 485.46 498.183 485.46C499.263 485.46 500.096 485.713 500.683 486.22C501.276 486.72 501.52 487.457 501.413 488.43H499.813C499.82 487.937 499.666 487.547 499.353 487.26C499.04 486.967 498.583 486.82 497.983 486.82C497.363 486.82 496.84 486.953 496.413 487.22C495.986 487.48 495.736 487.887 495.663 488.44C495.61 488.807 495.706 489.097 495.953 489.31C496.206 489.517 496.593 489.69 497.113 489.83L498.993 490.35C499.433 490.477 499.79 490.643 500.063 490.85C500.336 491.057 500.54 491.287 500.673 491.54C500.813 491.793 500.9 492.06 500.933 492.34C500.966 492.613 500.963 492.877 500.923 493.13C500.836 493.763 500.61 494.31 500.243 494.77C499.883 495.223 499.4 495.577 498.793 495.83C498.193 496.077 497.493 496.2 496.693 496.2ZM506.445 496.05C505.758 496.05 505.238 495.953 504.885 495.76C504.538 495.567 504.315 495.28 504.215 494.9C504.122 494.52 504.115 494.053 504.195 493.5L505.125 487.01H503.525L503.735 485.66H505.355L506.125 482.65H507.565L507.135 485.65H509.355L509.155 487.01H506.935L506.025 493.37C505.952 493.923 505.995 494.273 506.155 494.42C506.322 494.567 506.615 494.64 507.035 494.64H508.115L507.935 495.88C507.808 495.927 507.618 495.967 507.365 496C507.118 496.033 506.812 496.05 506.445 496.05ZM515.537 496L517.637 481.54H519.357L524.927 492.78L526.537 481.54H528.347L526.247 496H524.647L518.987 484.6L517.347 496H515.537ZM533.51 496.2C532.603 496.2 531.84 495.997 531.22 495.59C530.6 495.177 530.157 494.573 529.89 493.78C529.63 492.987 529.577 492.017 529.73 490.87C529.883 489.79 530.19 488.843 530.65 488.03C531.11 487.217 531.707 486.587 532.44 486.14C533.18 485.687 534.033 485.46 535 485.46C535.907 485.46 536.663 485.67 537.27 486.09C537.883 486.503 538.32 487.113 538.58 487.92C538.84 488.727 538.89 489.71 538.73 490.87C538.583 491.923 538.283 492.85 537.83 493.65C537.377 494.45 536.787 495.077 536.06 495.53C535.34 495.977 534.49 496.2 533.51 496.2ZM533.73 494.74C534.31 494.74 534.82 494.583 535.26 494.27C535.707 493.957 536.073 493.507 536.36 492.92C536.647 492.333 536.843 491.637 536.95 490.83C537.05 490.09 537.047 489.427 536.94 488.84C536.84 488.247 536.613 487.777 536.26 487.43C535.913 487.083 535.423 486.91 534.79 486.91C534.197 486.91 533.677 487.067 533.23 487.38C532.783 487.687 532.417 488.133 532.13 488.72C531.843 489.307 531.643 490.01 531.53 490.83C531.437 491.557 531.44 492.217 531.54 492.81C531.647 493.403 531.877 493.873 532.23 494.22C532.583 494.567 533.083 494.74 533.73 494.74ZM542.138 496L540.608 485.66H542.278L543.348 493.61H543.498L546.828 485.66H548.178L549.308 493.59H549.458L552.728 485.66H554.388L549.928 496H548.188L547.078 488.37L543.878 496H542.138Z" fill="#36536B"/>
</g>
<path id="The payment has been" d="M186.11 528L187.94 515.24H183.55L183.8 513.54H194.16L193.93 515.24H189.75L187.91 528H186.11ZM194.297 528L196.347 513.14H198.117L197.297 519.11C197.597 518.683 198.017 518.313 198.557 518C199.104 517.687 199.774 517.53 200.567 517.53C201.201 517.53 201.757 517.66 202.237 517.92C202.724 518.173 203.087 518.53 203.327 518.99C203.574 519.45 203.654 519.983 203.567 520.59L202.547 528H200.737L201.707 520.95C201.787 520.35 201.651 519.883 201.297 519.55C200.944 519.21 200.451 519.04 199.817 519.04C199.377 519.04 198.957 519.117 198.557 519.27C198.164 519.417 197.831 519.64 197.557 519.94C197.284 520.24 197.121 520.617 197.067 521.07L196.107 528H194.297ZM209.585 528.2C208.665 528.2 207.885 527.99 207.245 527.57C206.612 527.15 206.155 526.547 205.875 525.76C205.602 524.973 205.545 524.03 205.705 522.93C205.859 521.843 206.172 520.89 206.645 520.07C207.125 519.25 207.732 518.61 208.465 518.15C209.205 517.69 210.052 517.46 211.005 517.46C211.939 517.46 212.695 517.67 213.275 518.09C213.855 518.51 214.255 519.103 214.475 519.87C214.702 520.63 214.739 521.533 214.585 522.58L214.485 523.26H207.475C207.382 523.913 207.399 524.507 207.525 525.04C207.652 525.567 207.899 525.987 208.265 526.3C208.639 526.613 209.139 526.77 209.765 526.77C210.385 526.77 210.942 526.617 211.435 526.31C211.929 526.003 212.279 525.56 212.485 524.98H214.175C213.955 525.68 213.605 526.27 213.125 526.75C212.645 527.23 212.095 527.593 211.475 527.84C210.855 528.08 210.225 528.2 209.585 528.2ZM207.655 522.01H212.935C213.022 521.417 213.005 520.883 212.885 520.41C212.765 519.93 212.532 519.553 212.185 519.28C211.845 519 211.379 518.86 210.785 518.86C210.185 518.86 209.662 519.017 209.215 519.33C208.775 519.637 208.422 520.033 208.155 520.52C207.895 521 207.729 521.497 207.655 522.01ZM220.546 531.22L222.356 517.66H224.156L223.946 519.46C224.14 519.18 224.393 518.887 224.706 518.58C225.02 518.267 225.403 518.003 225.856 517.79C226.316 517.57 226.84 517.46 227.426 517.46C228.213 517.46 228.88 517.65 229.426 518.03C229.973 518.403 230.363 518.977 230.596 519.75C230.83 520.523 230.866 521.503 230.706 522.69C230.553 523.877 230.256 524.88 229.816 525.7C229.376 526.513 228.82 527.133 228.146 527.56C227.473 527.987 226.706 528.2 225.846 528.2C225.413 528.2 225.036 528.133 224.716 528C224.403 527.873 224.133 527.707 223.906 527.5C223.686 527.287 223.506 527.06 223.366 526.82C223.226 526.58 223.12 526.35 223.046 526.13L222.366 531.22H220.546ZM225.696 526.76C226.496 526.76 227.193 526.437 227.786 525.79C228.386 525.137 228.776 524.123 228.956 522.75C229.11 521.57 229 520.633 228.626 519.94C228.253 519.247 227.623 518.9 226.736 518.9C225.83 518.9 225.096 519.257 224.536 519.97C223.983 520.677 223.633 521.603 223.486 522.75C223.386 523.49 223.396 524.163 223.516 524.77C223.643 525.377 223.886 525.86 224.246 526.22C224.613 526.58 225.096 526.76 225.696 526.76ZM234.982 528.2C234.349 528.2 233.806 528.083 233.352 527.85C232.899 527.61 232.569 527.267 232.362 526.82C232.156 526.373 232.096 525.833 232.182 525.2C232.342 524.053 232.842 523.2 233.682 522.64C234.529 522.08 235.792 521.78 237.472 521.74L239.192 521.69L239.312 520.88C239.406 520.22 239.276 519.713 238.922 519.36C238.576 519 238.069 518.82 237.402 518.82C236.862 518.827 236.349 518.973 235.862 519.26C235.376 519.547 235.032 519.987 234.832 520.58H233.242C233.362 519.98 233.622 519.447 234.022 518.98C234.429 518.507 234.942 518.137 235.562 517.87C236.189 517.597 236.899 517.46 237.692 517.46C238.539 517.46 239.229 517.597 239.762 517.87C240.296 518.143 240.669 518.53 240.882 519.03C241.102 519.523 241.162 520.107 241.062 520.78L240.022 528H238.492L238.612 526.12C238.112 526.927 237.556 527.477 236.942 527.77C236.329 528.057 235.676 528.2 234.982 528.2ZM235.712 526.87C236.039 526.87 236.372 526.807 236.712 526.68C237.052 526.553 237.369 526.383 237.662 526.17C237.956 525.95 238.202 525.707 238.402 525.44C238.602 525.167 238.722 524.887 238.762 524.6L239.022 522.83L237.602 522.86C236.869 522.873 236.242 522.953 235.722 523.1C235.209 523.247 234.806 523.477 234.512 523.79C234.219 524.103 234.032 524.513 233.952 525.02C233.872 525.6 233.999 526.053 234.332 526.38C234.666 526.707 235.126 526.87 235.712 526.87ZM243.327 531.3C242.754 531.3 242.364 531.257 242.157 531.17C241.957 531.083 241.857 531.04 241.857 531.04L242.027 529.84L243.037 529.86C243.524 529.88 243.907 529.83 244.187 529.71C244.474 529.59 244.691 529.44 244.837 529.26C244.991 529.08 245.111 528.903 245.197 528.73L245.667 527.75L243.307 517.66H245.127L246.837 525.64L250.817 517.66H252.577L246.877 528.78C246.524 529.433 246.161 529.943 245.787 530.31C245.414 530.677 245.024 530.933 244.617 531.08C244.211 531.227 243.781 531.3 243.327 531.3ZM253.143 528L254.643 517.66H256.373L256.173 519.1C256.499 518.653 256.923 518.27 257.443 517.95C257.963 517.623 258.603 517.46 259.363 517.46C259.896 517.46 260.416 517.593 260.923 517.86C261.429 518.12 261.766 518.527 261.933 519.08C262.326 518.58 262.809 518.187 263.382 517.9C263.963 517.607 264.556 517.46 265.163 517.46C265.509 517.46 265.859 517.517 266.213 517.63C266.566 517.737 266.883 517.927 267.163 518.2C267.449 518.467 267.656 518.837 267.783 519.31C267.909 519.783 267.919 520.38 267.813 521.1L266.823 528H265.023L265.993 521.26C266.086 520.647 266.063 520.17 265.923 519.83C265.783 519.483 265.573 519.243 265.293 519.11C265.013 518.977 264.706 518.91 264.373 518.91C263.999 518.91 263.636 518.98 263.283 519.12C262.929 519.26 262.623 519.493 262.362 519.82C262.103 520.147 261.933 520.587 261.853 521.14L260.863 528H259.083L260.123 520.72C260.183 520.32 260.129 519.987 259.963 519.72C259.803 519.447 259.579 519.243 259.293 519.11C259.013 518.977 258.726 518.91 258.433 518.91C258.106 518.91 257.763 518.98 257.403 519.12C257.049 519.253 256.739 519.47 256.473 519.77C256.206 520.07 256.039 520.457 255.973 520.93L254.943 528H253.143ZM273.843 528.2C272.923 528.2 272.143 527.99 271.503 527.57C270.87 527.15 270.413 526.547 270.133 525.76C269.86 524.973 269.803 524.03 269.963 522.93C270.116 521.843 270.43 520.89 270.903 520.07C271.383 519.25 271.99 518.61 272.723 518.15C273.463 517.69 274.31 517.46 275.263 517.46C276.196 517.46 276.953 517.67 277.533 518.09C278.113 518.51 278.513 519.103 278.733 519.87C278.96 520.63 278.996 521.533 278.843 522.58L278.743 523.26H271.733C271.64 523.913 271.656 524.507 271.783 525.04C271.91 525.567 272.156 525.987 272.523 526.3C272.896 526.613 273.396 526.77 274.023 526.77C274.643 526.77 275.2 526.617 275.693 526.31C276.186 526.003 276.536 525.56 276.743 524.98H278.433C278.213 525.68 277.863 526.27 277.383 526.75C276.903 527.23 276.353 527.593 275.733 527.84C275.113 528.08 274.483 528.2 273.843 528.2ZM271.913 522.01H277.193C277.28 521.417 277.263 520.883 277.143 520.41C277.023 519.93 276.79 519.553 276.443 519.28C276.103 519 275.636 518.86 275.043 518.86C274.443 518.86 273.92 519.017 273.473 519.33C273.033 519.637 272.68 520.033 272.413 520.52C272.153 521 271.986 521.497 271.913 522.01ZM280.662 528L282.162 517.66H283.902L283.712 519.1C283.932 518.807 284.195 518.54 284.502 518.3C284.815 518.06 285.175 517.87 285.582 517.73C285.995 517.583 286.462 517.51 286.982 517.51C287.609 517.51 288.159 517.653 288.632 517.94C289.112 518.22 289.469 518.633 289.702 519.18C289.935 519.727 289.992 520.4 289.872 521.2L288.892 528H287.082L288.042 521.38C288.162 520.627 288.049 520.05 287.702 519.65C287.362 519.243 286.882 519.04 286.262 519.04C285.829 519.04 285.409 519.113 285.002 519.26C284.602 519.407 284.262 519.63 283.982 519.93C283.709 520.23 283.539 520.603 283.472 521.05L282.462 528H280.662ZM294.928 528.05C294.241 528.05 293.721 527.953 293.368 527.76C293.021 527.567 292.798 527.28 292.698 526.9C292.605 526.52 292.598 526.053 292.678 525.5L293.608 519.01H292.008L292.218 517.66H293.838L294.608 514.65H296.048L295.618 517.65H297.838L297.638 519.01H295.418L294.508 525.37C294.435 525.923 294.478 526.273 294.638 526.42C294.805 526.567 295.098 526.64 295.518 526.64H296.598L296.418 527.88C296.291 527.927 296.101 527.967 295.848 528C295.601 528.033 295.295 528.05 294.928 528.05ZM303.77 528L305.82 513.14H307.59L306.77 519.11C307.07 518.683 307.49 518.313 308.03 518C308.577 517.687 309.247 517.53 310.04 517.53C310.673 517.53 311.23 517.66 311.71 517.92C312.197 518.173 312.56 518.53 312.8 518.99C313.047 519.45 313.127 519.983 313.04 520.59L312.02 528H310.21L311.18 520.95C311.26 520.35 311.123 519.883 310.77 519.55C310.417 519.21 309.923 519.04 309.29 519.04C308.85 519.04 308.43 519.117 308.03 519.27C307.637 519.417 307.303 519.64 307.03 519.94C306.757 520.24 306.593 520.617 306.54 521.07L305.58 528H303.77ZM317.619 528.2C316.986 528.2 316.442 528.083 315.989 527.85C315.536 527.61 315.206 527.267 314.999 526.82C314.792 526.373 314.732 525.833 314.819 525.2C314.979 524.053 315.479 523.2 316.319 522.64C317.166 522.08 318.429 521.78 320.109 521.74L321.829 521.69L321.949 520.88C322.042 520.22 321.912 519.713 321.559 519.36C321.212 519 320.706 518.82 320.039 518.82C319.499 518.827 318.986 518.973 318.499 519.26C318.012 519.547 317.669 519.987 317.469 520.58H315.879C315.999 519.98 316.259 519.447 316.659 518.98C317.066 518.507 317.579 518.137 318.199 517.87C318.826 517.597 319.536 517.46 320.329 517.46C321.176 517.46 321.866 517.597 322.399 517.87C322.932 518.143 323.306 518.53 323.519 519.03C323.739 519.523 323.799 520.107 323.699 520.78L322.659 528H321.129L321.249 526.12C320.749 526.927 320.192 527.477 319.579 527.77C318.966 528.057 318.312 528.2 317.619 528.2ZM318.349 526.87C318.676 526.87 319.009 526.807 319.349 526.68C319.689 526.553 320.006 526.383 320.299 526.17C320.592 525.95 320.839 525.707 321.039 525.44C321.239 525.167 321.359 524.887 321.399 524.6L321.659 522.83L320.239 522.86C319.506 522.873 318.879 522.953 318.359 523.1C317.846 523.247 317.442 523.477 317.149 523.79C316.856 524.103 316.669 524.513 316.589 525.02C316.509 525.6 316.636 526.053 316.969 526.38C317.302 526.707 317.762 526.87 318.349 526.87ZM329.18 528.2C328.493 528.2 327.87 528.09 327.31 527.87C326.756 527.643 326.316 527.293 325.99 526.82C325.67 526.34 325.513 525.73 325.52 524.99H327.16C327.186 525.397 327.296 525.737 327.49 526.01C327.683 526.277 327.94 526.48 328.26 526.62C328.586 526.753 328.956 526.82 329.37 526.82C330.023 526.82 330.57 526.69 331.01 526.43C331.45 526.17 331.706 525.77 331.78 525.23C331.833 524.85 331.77 524.547 331.59 524.32C331.41 524.087 331.103 523.917 330.67 523.81L328.72 523.28C327.953 523.08 327.363 522.767 326.95 522.34C326.536 521.913 326.38 521.317 326.48 520.55C326.56 519.943 326.773 519.41 327.12 518.95C327.466 518.49 327.936 518.127 328.53 517.86C329.13 517.593 329.843 517.46 330.67 517.46C331.75 517.46 332.583 517.713 333.17 518.22C333.763 518.72 334.006 519.457 333.9 520.43H332.3C332.306 519.937 332.153 519.547 331.84 519.26C331.526 518.967 331.07 518.82 330.47 518.82C329.85 518.82 329.326 518.953 328.9 519.22C328.473 519.48 328.223 519.887 328.15 520.44C328.096 520.807 328.193 521.097 328.44 521.31C328.693 521.517 329.08 521.69 329.6 521.83L331.48 522.35C331.92 522.477 332.276 522.643 332.55 522.85C332.823 523.057 333.026 523.287 333.16 523.54C333.3 523.793 333.386 524.06 333.42 524.34C333.453 524.613 333.45 524.877 333.41 525.13C333.323 525.763 333.096 526.31 332.73 526.77C332.37 527.223 331.886 527.577 331.28 527.83C330.68 528.077 329.98 528.2 329.18 528.2ZM345.124 528.2C344.558 528.2 344.084 528.12 343.704 527.96C343.331 527.8 343.034 527.597 342.814 527.35C342.594 527.097 342.431 526.84 342.324 526.58C342.218 526.313 342.148 526.08 342.114 525.88L341.634 528H340.254L342.244 513.14H344.064L343.244 519.3C343.358 519.127 343.511 518.937 343.704 518.73C343.904 518.523 344.148 518.323 344.434 518.13C344.728 517.937 345.061 517.777 345.434 517.65C345.814 517.523 346.238 517.46 346.704 517.46C347.931 517.46 348.844 517.91 349.444 518.81C350.051 519.71 350.238 521.037 350.004 522.79C349.791 524.417 349.271 525.727 348.444 526.72C347.618 527.707 346.511 528.2 345.124 528.2ZM344.994 526.78C345.774 526.78 346.458 526.457 347.044 525.81C347.631 525.157 348.018 524.12 348.204 522.7C348.364 521.493 348.258 520.56 347.884 519.9C347.511 519.233 346.881 518.9 345.994 518.9C345.034 518.9 344.301 519.233 343.794 519.9C343.294 520.56 342.961 521.493 342.794 522.7C342.601 524.147 342.674 525.19 343.014 525.83C343.354 526.463 344.014 526.78 344.994 526.78ZM355.816 528.2C354.896 528.2 354.116 527.99 353.476 527.57C352.842 527.15 352.386 526.547 352.106 525.76C351.832 524.973 351.776 524.03 351.936 522.93C352.089 521.843 352.402 520.89 352.876 520.07C353.356 519.25 353.962 518.61 354.696 518.15C355.436 517.69 356.282 517.46 357.236 517.46C358.169 517.46 358.926 517.67 359.506 518.09C360.086 518.51 360.486 519.103 360.706 519.87C360.932 520.63 360.969 521.533 360.816 522.58L360.716 523.26H353.706C353.612 523.913 353.629 524.507 353.756 525.04C353.882 525.567 354.129 525.987 354.496 526.3C354.869 526.613 355.369 526.77 355.996 526.77C356.616 526.77 357.172 526.617 357.666 526.31C358.159 526.003 358.509 525.56 358.716 524.98H360.406C360.186 525.68 359.836 526.27 359.356 526.75C358.876 527.23 358.326 527.593 357.706 527.84C357.086 528.08 356.456 528.2 355.816 528.2ZM353.886 522.01H359.166C359.252 521.417 359.236 520.883 359.116 520.41C358.996 519.93 358.762 519.553 358.416 519.28C358.076 519 357.609 518.86 357.016 518.86C356.416 518.86 355.892 519.017 355.446 519.33C355.006 519.637 354.652 520.033 354.386 520.52C354.126 521 353.959 521.497 353.886 522.01ZM366.695 528.2C365.775 528.2 364.995 527.99 364.355 527.57C363.721 527.15 363.265 526.547 362.985 525.76C362.711 524.973 362.655 524.03 362.815 522.93C362.968 521.843 363.281 520.89 363.755 520.07C364.235 519.25 364.841 518.61 365.575 518.15C366.315 517.69 367.161 517.46 368.115 517.46C369.048 517.46 369.805 517.67 370.385 518.09C370.965 518.51 371.365 519.103 371.585 519.87C371.811 520.63 371.848 521.533 371.695 522.58L371.595 523.26H364.585C364.491 523.913 364.508 524.507 364.635 525.04C364.761 525.567 365.008 525.987 365.375 526.3C365.748 526.613 366.248 526.77 366.875 526.77C367.495 526.77 368.051 526.617 368.545 526.31C369.038 526.003 369.388 525.56 369.595 524.98H371.285C371.065 525.68 370.715 526.27 370.235 526.75C369.755 527.23 369.205 527.593 368.585 527.84C367.965 528.08 367.335 528.2 366.695 528.2ZM364.765 522.01H370.045C370.131 521.417 370.115 520.883 369.995 520.41C369.875 519.93 369.641 519.553 369.295 519.28C368.955 519 368.488 518.86 367.895 518.86C367.295 518.86 366.771 519.017 366.325 519.33C365.885 519.637 365.531 520.033 365.265 520.52C365.005 521 364.838 521.497 364.765 522.01ZM373.514 528L375.014 517.66H376.754L376.564 519.1C376.784 518.807 377.047 518.54 377.354 518.3C377.667 518.06 378.027 517.87 378.434 517.73C378.847 517.583 379.314 517.51 379.834 517.51C380.46 517.51 381.01 517.653 381.484 517.94C381.964 518.22 382.32 518.633 382.554 519.18C382.787 519.727 382.844 520.4 382.724 521.2L381.744 528H379.934L380.894 521.38C381.014 520.627 380.9 520.05 380.554 519.65C380.214 519.243 379.734 519.04 379.114 519.04C378.68 519.04 378.26 519.113 377.854 519.26C377.454 519.407 377.114 519.63 376.834 519.93C376.56 520.23 376.39 520.603 376.324 521.05L375.314 528H373.514ZM388.984 531.22L390.794 517.66H392.594L392.384 519.46C392.577 519.18 392.831 518.887 393.144 518.58C393.457 518.267 393.841 518.003 394.294 517.79C394.754 517.57 395.277 517.46 395.864 517.46C396.651 517.46 397.317 517.65 397.864 518.03C398.411 518.403 398.801 518.977 399.034 519.75C399.267 520.523 399.304 521.503 399.144 522.69C398.991 523.877 398.694 524.88 398.254 525.7C397.814 526.513 397.257 527.133 396.584 527.56C395.911 527.987 395.144 528.2 394.284 528.2C393.851 528.2 393.474 528.133 393.154 528C392.841 527.873 392.571 527.707 392.344 527.5C392.124 527.287 391.944 527.06 391.804 526.82C391.664 526.58 391.557 526.35 391.484 526.13L390.804 531.22H388.984ZM394.134 526.76C394.934 526.76 395.631 526.437 396.224 525.79C396.824 525.137 397.214 524.123 397.394 522.75C397.547 521.57 397.437 520.633 397.064 519.94C396.691 519.247 396.061 518.9 395.174 518.9C394.267 518.9 393.534 519.257 392.974 519.97C392.421 520.677 392.071 521.603 391.924 522.75C391.824 523.49 391.834 524.163 391.954 524.77C392.081 525.377 392.324 525.86 392.684 526.22C393.051 526.58 393.534 526.76 394.134 526.76ZM400.877 528L402.337 517.66H404.057L403.787 519.65C404.02 519.157 404.307 518.75 404.647 518.43C404.987 518.103 405.36 517.86 405.767 517.7C406.18 517.54 406.597 517.46 407.017 517.46C407.157 517.46 407.294 517.47 407.427 517.49C407.56 517.51 407.66 517.543 407.727 517.59L407.477 519.38C407.39 519.333 407.274 519.303 407.127 519.29C406.987 519.27 406.867 519.26 406.767 519.26C406.24 519.22 405.75 519.277 405.297 519.43C404.85 519.577 404.477 519.827 404.177 520.18C403.877 520.533 403.684 520.997 403.597 521.57L402.697 528H400.877ZM412.091 528.2C411.184 528.2 410.421 527.997 409.801 527.59C409.181 527.177 408.737 526.573 408.471 525.78C408.211 524.987 408.157 524.017 408.311 522.87C408.464 521.79 408.771 520.843 409.231 520.03C409.691 519.217 410.287 518.587 411.021 518.14C411.761 517.687 412.614 517.46 413.581 517.46C414.487 517.46 415.244 517.67 415.851 518.09C416.464 518.503 416.901 519.113 417.161 519.92C417.421 520.727 417.471 521.71 417.311 522.87C417.164 523.923 416.864 524.85 416.411 525.65C415.957 526.45 415.367 527.077 414.641 527.53C413.921 527.977 413.071 528.2 412.091 528.2ZM412.311 526.74C412.891 526.74 413.401 526.583 413.841 526.27C414.287 525.957 414.654 525.507 414.941 524.92C415.227 524.333 415.424 523.637 415.531 522.83C415.631 522.09 415.627 521.427 415.521 520.84C415.421 520.247 415.194 519.777 414.841 519.43C414.494 519.083 414.004 518.91 413.371 518.91C412.777 518.91 412.257 519.067 411.811 519.38C411.364 519.687 410.997 520.133 410.711 520.72C410.424 521.307 410.224 522.01 410.111 522.83C410.017 523.557 410.021 524.217 410.121 524.81C410.227 525.403 410.457 525.873 410.811 526.22C411.164 526.567 411.664 526.74 412.311 526.74ZM422.93 528.2C422.043 528.2 421.29 527.997 420.67 527.59C420.05 527.183 419.603 526.583 419.33 525.79C419.063 524.997 419.01 524.023 419.17 522.87C419.33 521.79 419.643 520.847 420.11 520.04C420.577 519.227 421.18 518.593 421.92 518.14C422.66 517.687 423.51 517.46 424.47 517.46C425.19 517.46 425.81 517.603 426.33 517.89C426.85 518.17 427.25 518.57 427.53 519.09C427.81 519.61 427.943 520.223 427.93 520.93H426.33C426.33 520.57 426.25 520.24 426.09 519.94C425.93 519.64 425.697 519.4 425.39 519.22C425.09 519.04 424.717 518.95 424.27 518.95C423.443 518.95 422.72 519.27 422.1 519.91C421.487 520.55 421.087 521.53 420.9 522.85C420.727 524.043 420.83 525 421.21 525.72C421.597 526.433 422.25 526.79 423.17 526.79C423.617 526.79 424.017 526.7 424.37 526.52C424.73 526.333 425.03 526.09 425.27 525.79C425.517 525.483 425.69 525.157 425.79 524.81H427.36C427.18 525.503 426.873 526.103 426.44 526.61C426.007 527.117 425.487 527.51 424.88 527.79C424.28 528.063 423.63 528.2 422.93 528.2ZM433.589 528.2C432.669 528.2 431.889 527.99 431.249 527.57C430.616 527.15 430.159 526.547 429.879 525.76C429.606 524.973 429.549 524.03 429.709 522.93C429.863 521.843 430.176 520.89 430.649 520.07C431.129 519.25 431.736 518.61 432.469 518.15C433.209 517.69 434.056 517.46 435.009 517.46C435.943 517.46 436.699 517.67 437.279 518.09C437.859 518.51 438.259 519.103 438.479 519.87C438.706 520.63 438.743 521.533 438.589 522.58L438.489 523.26H431.479C431.386 523.913 431.403 524.507 431.529 525.04C431.656 525.567 431.903 525.987 432.269 526.3C432.643 526.613 433.143 526.77 433.769 526.77C434.389 526.77 434.946 526.617 435.439 526.31C435.933 526.003 436.283 525.56 436.489 524.98H438.179C437.959 525.68 437.609 526.27 437.129 526.75C436.649 527.23 436.099 527.593 435.479 527.84C434.859 528.08 434.229 528.2 433.589 528.2ZM431.659 522.01H436.939C437.026 521.417 437.009 520.883 436.889 520.41C436.769 519.93 436.536 519.553 436.189 519.28C435.849 519 435.383 518.86 434.789 518.86C434.189 518.86 433.666 519.017 433.219 519.33C432.779 519.637 432.426 520.033 432.159 520.52C431.899 521 431.733 521.497 431.659 522.01ZM443.77 528.2C443.083 528.2 442.46 528.09 441.9 527.87C441.346 527.643 440.906 527.293 440.58 526.82C440.26 526.34 440.103 525.73 440.11 524.99H441.75C441.776 525.397 441.886 525.737 442.08 526.01C442.273 526.277 442.53 526.48 442.85 526.62C443.176 526.753 443.546 526.82 443.96 526.82C444.613 526.82 445.16 526.69 445.6 526.43C446.04 526.17 446.296 525.77 446.37 525.23C446.423 524.85 446.36 524.547 446.18 524.32C446 524.087 445.693 523.917 445.26 523.81L443.31 523.28C442.543 523.08 441.953 522.767 441.54 522.34C441.126 521.913 440.97 521.317 441.07 520.55C441.15 519.943 441.363 519.41 441.71 518.95C442.056 518.49 442.526 518.127 443.12 517.86C443.72 517.593 444.433 517.46 445.26 517.46C446.34 517.46 447.173 517.713 447.76 518.22C448.353 518.72 448.596 519.457 448.49 520.43H446.89C446.896 519.937 446.743 519.547 446.43 519.26C446.116 518.967 445.66 518.82 445.06 518.82C444.44 518.82 443.916 518.953 443.49 519.22C443.063 519.48 442.813 519.887 442.74 520.44C442.686 520.807 442.783 521.097 443.03 521.31C443.283 521.517 443.67 521.69 444.19 521.83L446.07 522.35C446.51 522.477 446.866 522.643 447.14 522.85C447.413 523.057 447.616 523.287 447.75 523.54C447.89 523.793 447.976 524.06 448.01 524.34C448.043 524.613 448.04 524.877 448 525.13C447.913 525.763 447.686 526.31 447.32 526.77C446.96 527.223 446.476 527.577 445.87 527.83C445.27 528.077 444.57 528.2 443.77 528.2ZM453.477 528.2C452.79 528.2 452.167 528.09 451.607 527.87C451.053 527.643 450.613 527.293 450.287 526.82C449.967 526.34 449.81 525.73 449.817 524.99H451.457C451.483 525.397 451.593 525.737 451.787 526.01C451.98 526.277 452.237 526.48 452.557 526.62C452.883 526.753 453.253 526.82 453.667 526.82C454.32 526.82 454.867 526.69 455.307 526.43C455.747 526.17 456.003 525.77 456.077 525.23C456.13 524.85 456.067 524.547 455.887 524.32C455.707 524.087 455.4 523.917 454.967 523.81L453.017 523.28C452.25 523.08 451.66 522.767 451.247 522.34C450.833 521.913 450.677 521.317 450.777 520.55C450.857 519.943 451.07 519.41 451.417 518.95C451.763 518.49 452.233 518.127 452.827 517.86C453.427 517.593 454.14 517.46 454.967 517.46C456.047 517.46 456.88 517.713 457.467 518.22C458.06 518.72 458.303 519.457 458.197 520.43H456.597C456.603 519.937 456.45 519.547 456.137 519.26C455.823 518.967 455.367 518.82 454.767 518.82C454.147 518.82 453.623 518.953 453.197 519.22C452.77 519.48 452.52 519.887 452.447 520.44C452.393 520.807 452.49 521.097 452.737 521.31C452.99 521.517 453.377 521.69 453.897 521.83L455.777 522.35C456.217 522.477 456.573 522.643 456.847 522.85C457.12 523.057 457.323 523.287 457.457 523.54C457.597 523.793 457.683 524.06 457.717 524.34C457.75 524.613 457.747 524.877 457.707 525.13C457.62 525.763 457.393 526.31 457.027 526.77C456.667 527.223 456.183 527.577 455.577 527.83C454.977 528.077 454.277 528.2 453.477 528.2ZM463.98 528.2C463.06 528.2 462.28 527.99 461.64 527.57C461.007 527.15 460.55 526.547 460.27 525.76C459.997 524.973 459.94 524.03 460.1 522.93C460.253 521.843 460.567 520.89 461.04 520.07C461.52 519.25 462.127 518.61 462.86 518.15C463.6 517.69 464.447 517.46 465.4 517.46C466.333 517.46 467.09 517.67 467.67 518.09C468.25 518.51 468.65 519.103 468.87 519.87C469.097 520.63 469.133 521.533 468.98 522.58L468.88 523.26H461.87C461.777 523.913 461.793 524.507 461.92 525.04C462.047 525.567 462.293 525.987 462.66 526.3C463.033 526.613 463.533 526.77 464.16 526.77C464.78 526.77 465.337 526.617 465.83 526.31C466.323 526.003 466.673 525.56 466.88 524.98H468.57C468.35 525.68 468 526.27 467.52 526.75C467.04 527.23 466.49 527.593 465.87 527.84C465.25 528.08 464.62 528.2 463.98 528.2ZM462.05 522.01H467.33C467.417 521.417 467.4 520.883 467.28 520.41C467.16 519.93 466.927 519.553 466.58 519.28C466.24 519 465.773 518.86 465.18 518.86C464.58 518.86 464.057 519.017 463.61 519.33C463.17 519.637 462.817 520.033 462.55 520.52C462.29 521 462.123 521.497 462.05 522.01ZM474.329 528.2C473.049 528.2 472.099 527.74 471.479 526.82C470.859 525.9 470.665 524.557 470.899 522.79C471.119 521.177 471.629 519.887 472.429 518.92C473.235 517.947 474.302 517.46 475.629 517.46C476.095 517.46 476.499 517.523 476.839 517.65C477.185 517.777 477.475 517.937 477.709 518.13C477.949 518.323 478.139 518.523 478.279 518.73C478.425 518.937 478.529 519.127 478.589 519.3L479.419 513.14H481.249L479.249 528H477.879L477.959 525.88C477.872 526.08 477.739 526.313 477.559 526.58C477.385 526.84 477.155 527.097 476.869 527.35C476.582 527.597 476.229 527.8 475.809 527.96C475.395 528.12 474.902 528.2 474.329 528.2ZM474.849 526.78C475.829 526.78 476.572 526.463 477.079 525.83C477.592 525.19 477.945 524.147 478.139 522.7C478.239 521.893 478.232 521.207 478.119 520.64C478.012 520.073 477.782 519.643 477.429 519.35C477.075 519.05 476.579 518.9 475.939 518.9C475.139 518.9 474.445 519.203 473.859 519.81C473.279 520.417 472.902 521.38 472.729 522.7C472.555 523.993 472.649 524.997 473.009 525.71C473.369 526.423 473.982 526.78 474.849 526.78ZM481.901 528L482.251 525.64H484.381L484.031 528H481.901ZM494.587 528L496.417 515.24H492.027L492.277 513.54H502.637L502.407 515.24H498.227L496.387 528H494.587ZM502.774 528L504.824 513.14H506.594L505.774 519.11C506.074 518.683 506.494 518.313 507.034 518C507.58 517.687 508.25 517.53 509.044 517.53C509.677 517.53 510.234 517.66 510.714 517.92C511.2 518.173 511.564 518.53 511.804 518.99C512.05 519.45 512.13 519.983 512.044 520.59L511.024 528H509.214L510.184 520.95C510.264 520.35 510.127 519.883 509.774 519.55C509.42 519.21 508.927 519.04 508.294 519.04C507.854 519.04 507.434 519.117 507.034 519.27C506.64 519.417 506.307 519.64 506.034 519.94C505.76 520.24 505.597 520.617 505.544 521.07L504.584 528H502.774ZM518.062 528.2C517.142 528.2 516.362 527.99 515.722 527.57C515.089 527.15 514.632 526.547 514.352 525.76C514.079 524.973 514.022 524.03 514.182 522.93C514.335 521.843 514.649 520.89 515.122 520.07C515.602 519.25 516.209 518.61 516.942 518.15C517.682 517.69 518.529 517.46 519.482 517.46C520.415 517.46 521.172 517.67 521.752 518.09C522.332 518.51 522.732 519.103 522.952 519.87C523.179 520.63 523.215 521.533 523.062 522.58L522.962 523.26H515.952C515.859 523.913 515.875 524.507 516.002 525.04C516.129 525.567 516.375 525.987 516.742 526.3C517.115 526.613 517.615 526.77 518.242 526.77C518.862 526.77 519.419 526.617 519.912 526.31C520.405 526.003 520.755 525.56 520.962 524.98H522.652C522.432 525.68 522.082 526.27 521.602 526.75C521.122 527.23 520.572 527.593 519.952 527.84C519.332 528.08 518.702 528.2 518.062 528.2ZM516.132 522.01H521.412C521.499 521.417 521.482 520.883 521.362 520.41C521.242 519.93 521.009 519.553 520.662 519.28C520.322 519 519.855 518.86 519.262 518.86C518.662 518.86 518.139 519.017 517.692 519.33C517.252 519.637 516.899 520.033 516.632 520.52C516.372 521 516.205 521.497 516.132 522.01ZM186.51 556.05C185.823 556.05 185.303 555.953 184.95 555.76C184.603 555.567 184.38 555.28 184.28 554.9C184.187 554.52 184.18 554.053 184.26 553.5L185.19 547.01H183.59L183.8 545.66H185.42L186.19 542.65H187.63L187.2 545.65H189.42L189.22 547.01H187L186.09 553.37C186.017 553.923 186.06 554.273 186.22 554.42C186.387 554.567 186.68 554.64 187.1 554.64H188.18L188 555.88C187.873 555.927 187.683 555.967 187.43 556C187.183 556.033 186.877 556.05 186.51 556.05ZM194.239 556.2C193.332 556.2 192.569 555.997 191.949 555.59C191.329 555.177 190.886 554.573 190.619 553.78C190.359 552.987 190.306 552.017 190.459 550.87C190.612 549.79 190.919 548.843 191.379 548.03C191.839 547.217 192.436 546.587 193.169 546.14C193.909 545.687 194.762 545.46 195.729 545.46C196.636 545.46 197.392 545.67 197.999 546.09C198.612 546.503 199.049 547.113 199.309 547.92C199.569 548.727 199.619 549.71 199.459 550.87C199.312 551.923 199.012 552.85 198.559 553.65C198.106 554.45 197.516 555.077 196.789 555.53C196.069 555.977 195.219 556.2 194.239 556.2ZM194.459 554.74C195.039 554.74 195.549 554.583 195.989 554.27C196.436 553.957 196.802 553.507 197.089 552.92C197.376 552.333 197.572 551.637 197.679 550.83C197.779 550.09 197.776 549.427 197.669 548.84C197.569 548.247 197.342 547.777 196.989 547.43C196.642 547.083 196.152 546.91 195.519 546.91C194.926 546.91 194.406 547.067 193.959 547.38C193.512 547.687 193.146 548.133 192.859 548.72C192.572 549.307 192.372 550.01 192.259 550.83C192.166 551.557 192.169 552.217 192.269 552.81C192.376 553.403 192.606 553.873 192.959 554.22C193.312 554.567 193.812 554.74 194.459 554.74ZM204.44 556.05C203.753 556.05 203.233 555.953 202.88 555.76C202.533 555.567 202.31 555.28 202.21 554.9C202.116 554.52 202.11 554.053 202.19 553.5L203.12 547.01H201.52L201.73 545.66H203.35L204.12 542.65H205.56L205.13 545.65H207.35L207.15 547.01H204.93L204.02 553.37C203.946 553.923 203.99 554.273 204.15 554.42C204.316 554.567 204.61 554.64 205.03 554.64H206.11L205.93 555.88C205.803 555.927 205.613 555.967 205.36 556C205.113 556.033 204.806 556.05 204.44 556.05ZM211.174 556.2C210.54 556.2 209.997 556.083 209.544 555.85C209.09 555.61 208.76 555.267 208.554 554.82C208.347 554.373 208.287 553.833 208.374 553.2C208.534 552.053 209.034 551.2 209.874 550.64C210.72 550.08 211.984 549.78 213.664 549.74L215.384 549.69L215.504 548.88C215.597 548.22 215.467 547.713 215.114 547.36C214.767 547 214.26 546.82 213.594 546.82C213.054 546.827 212.54 546.973 212.054 547.26C211.567 547.547 211.224 547.987 211.024 548.58H209.434C209.554 547.98 209.814 547.447 210.214 546.98C210.62 546.507 211.134 546.137 211.754 545.87C212.38 545.597 213.09 545.46 213.884 545.46C214.73 545.46 215.42 545.597 215.954 545.87C216.487 546.143 216.86 546.53 217.074 547.03C217.294 547.523 217.354 548.107 217.254 548.78L216.214 556H214.684L214.804 554.12C214.304 554.927 213.747 555.477 213.134 555.77C212.52 556.057 211.867 556.2 211.174 556.2ZM211.904 554.87C212.23 554.87 212.564 554.807 212.904 554.68C213.244 554.553 213.56 554.383 213.854 554.17C214.147 553.95 214.394 553.707 214.594 553.44C214.794 553.167 214.914 552.887 214.954 552.6L215.214 550.83L213.794 550.86C213.06 550.873 212.434 550.953 211.914 551.1C211.4 551.247 210.997 551.477 210.704 551.79C210.41 552.103 210.224 552.513 210.144 553.02C210.064 553.6 210.19 554.053 210.524 554.38C210.857 554.707 211.317 554.87 211.904 554.87ZM221.951 556.13C221.417 556.13 220.997 556.053 220.691 555.9C220.384 555.747 220.161 555.54 220.021 555.28C219.881 555.02 219.804 554.723 219.791 554.39C219.777 554.05 219.794 553.7 219.841 553.34L221.611 541.14H223.391L221.651 553.16C221.577 553.68 221.617 554.07 221.771 554.33C221.931 554.59 222.184 554.733 222.531 554.76L223.051 554.77L222.881 555.97C222.714 556.017 222.547 556.053 222.381 556.08C222.214 556.113 222.071 556.13 221.951 556.13ZM232.619 556.2C231.986 556.2 231.442 556.083 230.989 555.85C230.536 555.61 230.206 555.267 229.999 554.82C229.792 554.373 229.732 553.833 229.819 553.2C229.979 552.053 230.479 551.2 231.319 550.64C232.166 550.08 233.429 549.78 235.109 549.74L236.829 549.69L236.949 548.88C237.042 548.22 236.912 547.713 236.559 547.36C236.212 547 235.706 546.82 235.039 546.82C234.499 546.827 233.986 546.973 233.499 547.26C233.012 547.547 232.669 547.987 232.469 548.58H230.879C230.999 547.98 231.259 547.447 231.659 546.98C232.066 546.507 232.579 546.137 233.199 545.87C233.826 545.597 234.536 545.46 235.329 545.46C236.176 545.46 236.866 545.597 237.399 545.87C237.932 546.143 238.306 546.53 238.519 547.03C238.739 547.523 238.799 548.107 238.699 548.78L237.659 556H236.129L236.249 554.12C235.749 554.927 235.192 555.477 234.579 555.77C233.966 556.057 233.312 556.2 232.619 556.2ZM233.349 554.87C233.676 554.87 234.009 554.807 234.349 554.68C234.689 554.553 235.006 554.383 235.299 554.17C235.592 553.95 235.839 553.707 236.039 553.44C236.239 553.167 236.359 552.887 236.399 552.6L236.659 550.83L235.239 550.86C234.506 550.873 233.879 550.953 233.359 551.1C232.846 551.247 232.442 551.477 232.149 551.79C231.856 552.103 231.669 552.513 231.589 553.02C231.509 553.6 231.636 554.053 231.969 554.38C232.302 554.707 232.762 554.87 233.349 554.87ZM240.916 556L242.416 545.66H244.146L243.946 547.1C244.273 546.653 244.696 546.27 245.216 545.95C245.736 545.623 246.376 545.46 247.136 545.46C247.669 545.46 248.189 545.593 248.696 545.86C249.203 546.12 249.539 546.527 249.706 547.08C250.099 546.58 250.583 546.187 251.156 545.9C251.736 545.607 252.329 545.46 252.936 545.46C253.283 545.46 253.633 545.517 253.986 545.63C254.339 545.737 254.656 545.927 254.936 546.2C255.223 546.467 255.429 546.837 255.556 547.31C255.683 547.783 255.693 548.38 255.586 549.1L254.596 556H252.796L253.766 549.26C253.859 548.647 253.836 548.17 253.696 547.83C253.556 547.483 253.346 547.243 253.066 547.11C252.786 546.977 252.479 546.91 252.146 546.91C251.773 546.91 251.409 546.98 251.056 547.12C250.703 547.26 250.396 547.493 250.136 547.82C249.876 548.147 249.706 548.587 249.626 549.14L248.636 556H246.856L247.896 548.72C247.956 548.32 247.903 547.987 247.736 547.72C247.576 547.447 247.353 547.243 247.066 547.11C246.786 546.977 246.499 546.91 246.206 546.91C245.879 546.91 245.536 546.98 245.176 547.12C244.823 547.253 244.513 547.47 244.246 547.77C243.979 548.07 243.813 548.457 243.746 548.93L242.716 556H240.916ZM261.427 556.2C260.52 556.2 259.757 555.997 259.137 555.59C258.517 555.177 258.073 554.573 257.807 553.78C257.547 552.987 257.493 552.017 257.647 550.87C257.8 549.79 258.107 548.843 258.567 548.03C259.027 547.217 259.623 546.587 260.357 546.14C261.097 545.687 261.95 545.46 262.917 545.46C263.823 545.46 264.58 545.67 265.187 546.09C265.8 546.503 266.237 547.113 266.497 547.92C266.757 548.727 266.807 549.71 266.647 550.87C266.5 551.923 266.2 552.85 265.747 553.65C265.293 554.45 264.703 555.077 263.977 555.53C263.257 555.977 262.407 556.2 261.427 556.2ZM261.647 554.74C262.227 554.74 262.737 554.583 263.177 554.27C263.623 553.957 263.99 553.507 264.277 552.92C264.563 552.333 264.76 551.637 264.867 550.83C264.967 550.09 264.963 549.427 264.857 548.84C264.757 548.247 264.53 547.777 264.177 547.43C263.83 547.083 263.34 546.91 262.707 546.91C262.113 546.91 261.593 547.067 261.147 547.38C260.7 547.687 260.333 548.133 260.047 548.72C259.76 549.307 259.56 550.01 259.447 550.83C259.353 551.557 259.357 552.217 259.457 552.81C259.563 553.403 259.793 553.873 260.147 554.22C260.5 554.567 261 554.74 261.647 554.74ZM271.85 556.2C271.343 556.193 270.873 556.117 270.44 555.97C270.006 555.817 269.633 555.593 269.32 555.3C269.013 555.007 268.79 554.643 268.65 554.21C268.516 553.77 268.49 553.26 268.57 552.68L269.55 545.66H271.37L270.41 552.49C270.31 553.163 270.426 553.71 270.76 554.13C271.093 554.55 271.656 554.76 272.45 554.76C273.163 554.76 273.763 554.563 274.25 554.17C274.743 553.77 275.043 553.177 275.15 552.39L276.1 545.66H277.9L276.44 556H275.02L275.1 554.02C274.913 554.54 274.65 554.96 274.31 555.28C273.976 555.6 273.596 555.837 273.17 555.99C272.75 556.137 272.31 556.207 271.85 556.2ZM279.51 556L281.01 545.66H282.75L282.56 547.1C282.78 546.807 283.043 546.54 283.35 546.3C283.663 546.06 284.023 545.87 284.43 545.73C284.843 545.583 285.31 545.51 285.83 545.51C286.456 545.51 287.006 545.653 287.48 545.94C287.96 546.22 288.316 546.633 288.55 547.18C288.783 547.727 288.84 548.4 288.72 549.2L287.74 556H285.93L286.89 549.38C287.01 548.627 286.896 548.05 286.55 547.65C286.21 547.243 285.73 547.04 285.11 547.04C284.676 547.04 284.256 547.113 283.85 547.26C283.45 547.407 283.11 547.63 282.83 547.93C282.556 548.23 282.386 548.603 282.32 549.05L281.31 556H279.51ZM293.776 556.05C293.089 556.05 292.569 555.953 292.216 555.76C291.869 555.567 291.646 555.28 291.546 554.9C291.452 554.52 291.446 554.053 291.526 553.5L292.456 547.01H290.856L291.066 545.66H292.686L293.456 542.65H294.896L294.466 545.65H296.686L296.486 547.01H294.266L293.356 553.37C293.282 553.923 293.326 554.273 293.486 554.42C293.652 554.567 293.946 554.64 294.366 554.64H295.446L295.266 555.88C295.139 555.927 294.949 555.967 294.696 556C294.449 556.033 294.142 556.05 293.776 556.05ZM305.794 556.2C304.514 556.2 303.564 555.74 302.944 554.82C302.324 553.9 302.13 552.557 302.364 550.79C302.584 549.177 303.094 547.887 303.894 546.92C304.7 545.947 305.767 545.46 307.094 545.46C307.56 545.46 307.964 545.523 308.304 545.65C308.65 545.777 308.94 545.937 309.174 546.13C309.414 546.323 309.604 546.523 309.744 546.73C309.89 546.937 309.994 547.127 310.054 547.3L310.884 541.14H312.714L310.714 556H309.344L309.424 553.88C309.337 554.08 309.204 554.313 309.024 554.58C308.85 554.84 308.62 555.097 308.334 555.35C308.047 555.597 307.694 555.8 307.274 555.96C306.86 556.12 306.367 556.2 305.794 556.2ZM306.314 554.78C307.294 554.78 308.037 554.463 308.544 553.83C309.057 553.19 309.41 552.147 309.604 550.7C309.704 549.893 309.697 549.207 309.584 548.64C309.477 548.073 309.247 547.643 308.894 547.35C308.54 547.05 308.044 546.9 307.404 546.9C306.604 546.9 305.91 547.203 305.324 547.81C304.744 548.417 304.367 549.38 304.194 550.7C304.02 551.993 304.114 552.997 304.474 553.71C304.834 554.423 305.447 554.78 306.314 554.78ZM317.886 556.2C316.966 556.2 316.186 555.99 315.546 555.57C314.913 555.15 314.456 554.547 314.176 553.76C313.903 552.973 313.846 552.03 314.006 550.93C314.159 549.843 314.473 548.89 314.946 548.07C315.426 547.25 316.033 546.61 316.766 546.15C317.506 545.69 318.353 545.46 319.306 545.46C320.239 545.46 320.996 545.67 321.576 546.09C322.156 546.51 322.556 547.103 322.776 547.87C323.003 548.63 323.039 549.533 322.886 550.58L322.786 551.26H315.776C315.683 551.913 315.699 552.507 315.826 553.04C315.953 553.567 316.199 553.987 316.566 554.3C316.939 554.613 317.439 554.77 318.066 554.77C318.686 554.77 319.243 554.617 319.736 554.31C320.229 554.003 320.579 553.56 320.786 552.98H322.476C322.256 553.68 321.906 554.27 321.426 554.75C320.946 555.23 320.396 555.593 319.776 555.84C319.156 556.08 318.526 556.2 317.886 556.2ZM315.956 550.01H321.236C321.323 549.417 321.306 548.883 321.186 548.41C321.066 547.93 320.833 547.553 320.486 547.28C320.146 547 319.679 546.86 319.086 546.86C318.486 546.86 317.963 547.017 317.516 547.33C317.076 547.637 316.723 548.033 316.456 548.52C316.196 549 316.029 549.497 315.956 550.01ZM328.235 556.2C326.955 556.2 326.005 555.74 325.385 554.82C324.765 553.9 324.572 552.557 324.805 550.79C325.025 549.177 325.535 547.887 326.335 546.92C327.142 545.947 328.208 545.46 329.535 545.46C330.002 545.46 330.405 545.523 330.745 545.65C331.092 545.777 331.382 545.937 331.615 546.13C331.855 546.323 332.045 546.523 332.185 546.73C332.332 546.937 332.435 547.127 332.495 547.3L333.325 541.14H335.155L333.155 556H331.785L331.865 553.88C331.778 554.08 331.645 554.313 331.465 554.58C331.292 554.84 331.062 555.097 330.775 555.35C330.488 555.597 330.135 555.8 329.715 555.96C329.302 556.12 328.808 556.2 328.235 556.2ZM328.755 554.78C329.735 554.78 330.478 554.463 330.985 553.83C331.498 553.19 331.852 552.147 332.045 550.7C332.145 549.893 332.138 549.207 332.025 548.64C331.918 548.073 331.688 547.643 331.335 547.35C330.982 547.05 330.485 546.9 329.845 546.9C329.045 546.9 328.352 547.203 327.765 547.81C327.185 548.417 326.808 549.38 326.635 550.7C326.462 551.993 326.555 552.997 326.915 553.71C327.275 554.423 327.888 554.78 328.755 554.78ZM339.858 556.2C339.351 556.193 338.881 556.117 338.448 555.97C338.014 555.817 337.641 555.593 337.328 555.3C337.021 555.007 336.798 554.643 336.658 554.21C336.524 553.77 336.498 553.26 336.578 552.68L337.558 545.66H339.378L338.418 552.49C338.318 553.163 338.434 553.71 338.768 554.13C339.101 554.55 339.664 554.76 340.458 554.76C341.171 554.76 341.771 554.563 342.258 554.17C342.751 553.77 343.051 553.177 343.158 552.39L344.108 545.66H345.908L344.448 556H343.028L343.108 554.02C342.921 554.54 342.658 554.96 342.318 555.28C341.984 555.6 341.604 555.837 341.178 555.99C340.758 556.137 340.318 556.207 339.858 556.2ZM351.25 556.2C350.364 556.2 349.61 555.997 348.99 555.59C348.37 555.183 347.924 554.583 347.65 553.79C347.384 552.997 347.33 552.023 347.49 550.87C347.65 549.79 347.964 548.847 348.43 548.04C348.897 547.227 349.5 546.593 350.24 546.14C350.98 545.687 351.83 545.46 352.79 545.46C353.51 545.46 354.13 545.603 354.65 545.89C355.17 546.17 355.57 546.57 355.85 547.09C356.13 547.61 356.264 548.223 356.25 548.93H354.65C354.65 548.57 354.57 548.24 354.41 547.94C354.25 547.64 354.017 547.4 353.71 547.22C353.41 547.04 353.037 546.95 352.59 546.95C351.764 546.95 351.04 547.27 350.42 547.91C349.807 548.55 349.407 549.53 349.22 550.85C349.047 552.043 349.15 553 349.53 553.72C349.917 554.433 350.57 554.79 351.49 554.79C351.937 554.79 352.337 554.7 352.69 554.52C353.05 554.333 353.35 554.09 353.59 553.79C353.837 553.483 354.01 553.157 354.11 552.81H355.68C355.5 553.503 355.194 554.103 354.76 554.61C354.327 555.117 353.807 555.51 353.2 555.79C352.6 556.063 351.95 556.2 351.25 556.2ZM361.061 556.05C360.374 556.05 359.854 555.953 359.501 555.76C359.154 555.567 358.931 555.28 358.831 554.9C358.737 554.52 358.731 554.053 358.811 553.5L359.741 547.01H358.141L358.351 545.66H359.971L360.741 542.65H362.181L361.751 545.65H363.971L363.771 547.01H361.551L360.641 553.37C360.567 553.923 360.611 554.273 360.771 554.42C360.937 554.567 361.231 554.64 361.651 554.64H362.731L362.551 555.88C362.424 555.927 362.234 555.967 361.981 556C361.734 556.033 361.427 556.05 361.061 556.05ZM368.98 556.2C368.06 556.2 367.28 555.99 366.64 555.57C366.007 555.15 365.55 554.547 365.27 553.76C364.997 552.973 364.94 552.03 365.1 550.93C365.253 549.843 365.567 548.89 366.04 548.07C366.52 547.25 367.127 546.61 367.86 546.15C368.6 545.69 369.447 545.46 370.4 545.46C371.333 545.46 372.09 545.67 372.67 546.09C373.25 546.51 373.65 547.103 373.87 547.87C374.097 548.63 374.133 549.533 373.98 550.58L373.88 551.26H366.87C366.777 551.913 366.793 552.507 366.92 553.04C367.047 553.567 367.293 553.987 367.66 554.3C368.033 554.613 368.533 554.77 369.16 554.77C369.78 554.77 370.337 554.617 370.83 554.31C371.323 554.003 371.673 553.56 371.88 552.98H373.57C373.35 553.68 373 554.27 372.52 554.75C372.04 555.23 371.49 555.593 370.87 555.84C370.25 556.08 369.62 556.2 368.98 556.2ZM367.05 550.01H372.33C372.417 549.417 372.4 548.883 372.28 548.41C372.16 547.93 371.927 547.553 371.58 547.28C371.24 547 370.773 546.86 370.18 546.86C369.58 546.86 369.057 547.017 368.61 547.33C368.17 547.637 367.817 548.033 367.55 548.52C367.29 549 367.123 549.497 367.05 550.01ZM379.329 556.2C378.049 556.2 377.099 555.74 376.479 554.82C375.859 553.9 375.665 552.557 375.899 550.79C376.119 549.177 376.629 547.887 377.429 546.92C378.235 545.947 379.302 545.46 380.629 545.46C381.095 545.46 381.499 545.523 381.839 545.65C382.185 545.777 382.475 545.937 382.709 546.13C382.949 546.323 383.139 546.523 383.279 546.73C383.425 546.937 383.529 547.127 383.589 547.3L384.419 541.14H386.249L384.249 556H382.879L382.959 553.88C382.872 554.08 382.739 554.313 382.559 554.58C382.385 554.84 382.155 555.097 381.869 555.35C381.582 555.597 381.229 555.8 380.809 555.96C380.395 556.12 379.902 556.2 379.329 556.2ZM379.849 554.78C380.829 554.78 381.572 554.463 382.079 553.83C382.592 553.19 382.945 552.147 383.139 550.7C383.239 549.893 383.232 549.207 383.119 548.64C383.012 548.073 382.782 547.643 382.429 547.35C382.075 547.05 381.579 546.9 380.939 546.9C380.139 546.9 379.445 547.203 378.859 547.81C378.279 548.417 377.902 549.38 377.729 550.7C377.555 551.993 377.649 552.997 378.009 553.71C378.369 554.423 378.982 554.78 379.849 554.78ZM393.271 556L394.561 547.01H392.501L392.711 545.66H394.751L394.991 544.06C395.111 543.24 395.397 542.617 395.851 542.19C396.311 541.757 396.941 541.54 397.741 541.54H399.601L399.411 542.85H397.981C397.574 542.85 397.281 542.963 397.101 543.19C396.921 543.417 396.794 543.76 396.721 544.22L396.521 545.66H398.911L398.711 547.01H396.361L395.061 556H393.271ZM399.783 556L401.243 545.66H402.963L402.693 547.65C402.926 547.157 403.213 546.75 403.553 546.43C403.893 546.103 404.266 545.86 404.673 545.7C405.086 545.54 405.503 545.46 405.923 545.46C406.063 545.46 406.2 545.47 406.333 545.49C406.466 545.51 406.566 545.543 406.633 545.59L406.383 547.38C406.296 547.333 406.18 547.303 406.033 547.29C405.893 547.27 405.773 547.26 405.673 547.26C405.146 547.22 404.656 547.277 404.203 547.43C403.756 547.577 403.383 547.827 403.083 548.18C402.783 548.533 402.59 548.997 402.503 549.57L401.603 556H399.783ZM410.997 556.2C410.09 556.2 409.327 555.997 408.707 555.59C408.087 555.177 407.644 554.573 407.377 553.78C407.117 552.987 407.064 552.017 407.217 550.87C407.37 549.79 407.677 548.843 408.137 548.03C408.597 547.217 409.194 546.587 409.927 546.14C410.667 545.687 411.52 545.46 412.487 545.46C413.394 545.46 414.15 545.67 414.757 546.09C415.37 546.503 415.807 547.113 416.067 547.92C416.327 548.727 416.377 549.71 416.217 550.87C416.07 551.923 415.77 552.85 415.317 553.65C414.864 554.45 414.274 555.077 413.547 555.53C412.827 555.977 411.977 556.2 410.997 556.2ZM411.217 554.74C411.797 554.74 412.307 554.583 412.747 554.27C413.194 553.957 413.56 553.507 413.847 552.92C414.134 552.333 414.33 551.637 414.437 550.83C414.537 550.09 414.534 549.427 414.427 548.84C414.327 548.247 414.1 547.777 413.747 547.43C413.4 547.083 412.91 546.91 412.277 546.91C411.684 546.91 411.164 547.067 410.717 547.38C410.27 547.687 409.904 548.133 409.617 548.72C409.33 549.307 409.13 550.01 409.017 550.83C408.924 551.557 408.927 552.217 409.027 552.81C409.134 553.403 409.364 553.873 409.717 554.22C410.07 554.567 410.57 554.74 411.217 554.74ZM417.986 556L419.486 545.66H421.216L421.016 547.1C421.343 546.653 421.766 546.27 422.286 545.95C422.806 545.623 423.446 545.46 424.206 545.46C424.74 545.46 425.26 545.593 425.766 545.86C426.273 546.12 426.61 546.527 426.776 547.08C427.17 546.58 427.653 546.187 428.226 545.9C428.806 545.607 429.4 545.46 430.006 545.46C430.353 545.46 430.703 545.517 431.056 545.63C431.41 545.737 431.726 545.927 432.006 546.2C432.293 546.467 432.5 546.837 432.626 547.31C432.753 547.783 432.763 548.38 432.656 549.1L431.666 556H429.866L430.836 549.26C430.93 548.647 430.906 548.17 430.766 547.83C430.626 547.483 430.416 547.243 430.136 547.11C429.856 546.977 429.55 546.91 429.216 546.91C428.843 546.91 428.48 546.98 428.126 547.12C427.773 547.26 427.466 547.493 427.206 547.82C426.946 548.147 426.776 548.587 426.696 549.14L425.706 556H423.926L424.966 548.72C425.026 548.32 424.973 547.987 424.806 547.72C424.646 547.447 424.423 547.243 424.136 547.11C423.856 546.977 423.57 546.91 423.276 546.91C422.95 546.91 422.606 546.98 422.246 547.12C421.893 547.253 421.583 547.47 421.316 547.77C421.05 548.07 420.883 548.457 420.816 548.93L419.786 556H417.986ZM439.499 559.3C438.926 559.3 438.536 559.257 438.329 559.17C438.129 559.083 438.029 559.04 438.029 559.04L438.199 557.84L439.209 557.86C439.696 557.88 440.079 557.83 440.359 557.71C440.646 557.59 440.862 557.44 441.009 557.26C441.162 557.08 441.282 556.903 441.369 556.73L441.839 555.75L439.479 545.66H441.299L443.009 553.64L446.989 545.66H448.749L443.049 556.78C442.696 557.433 442.332 557.943 441.959 558.31C441.586 558.677 441.196 558.933 440.789 559.08C440.382 559.227 439.952 559.3 439.499 559.3ZM452.813 556.2C451.907 556.2 451.143 555.997 450.523 555.59C449.903 555.177 449.46 554.573 449.193 553.78C448.933 552.987 448.88 552.017 449.033 550.87C449.187 549.79 449.493 548.843 449.953 548.03C450.413 547.217 451.01 546.587 451.743 546.14C452.483 545.687 453.337 545.46 454.303 545.46C455.21 545.46 455.967 545.67 456.573 546.09C457.187 546.503 457.623 547.113 457.883 547.92C458.143 548.727 458.193 549.71 458.033 550.87C457.887 551.923 457.587 552.85 457.133 553.65C456.68 554.45 456.09 555.077 455.363 555.53C454.643 555.977 453.793 556.2 452.813 556.2ZM453.033 554.74C453.613 554.74 454.123 554.583 454.563 554.27C455.01 553.957 455.377 553.507 455.663 552.92C455.95 552.333 456.147 551.637 456.253 550.83C456.353 550.09 456.35 549.427 456.243 548.84C456.143 548.247 455.917 547.777 455.563 547.43C455.217 547.083 454.727 546.91 454.093 546.91C453.5 546.91 452.98 547.067 452.533 547.38C452.087 547.687 451.72 548.133 451.433 548.72C451.147 549.307 450.947 550.01 450.833 550.83C450.74 551.557 450.743 552.217 450.843 552.81C450.95 553.403 451.18 553.873 451.533 554.22C451.887 554.567 452.387 554.74 453.033 554.74ZM463.236 556.2C462.73 556.193 462.26 556.117 461.826 555.97C461.393 555.817 461.02 555.593 460.706 555.3C460.4 555.007 460.176 554.643 460.036 554.21C459.903 553.77 459.876 553.26 459.956 552.68L460.936 545.66H462.756L461.796 552.49C461.696 553.163 461.813 553.71 462.146 554.13C462.48 554.55 463.043 554.76 463.836 554.76C464.55 554.76 465.15 554.563 465.636 554.17C466.13 553.77 466.43 553.177 466.536 552.39L467.486 545.66H469.286L467.826 556H466.406L466.486 554.02C466.3 554.54 466.036 554.96 465.696 555.28C465.363 555.6 464.983 555.837 464.556 555.99C464.136 556.137 463.696 556.207 463.236 556.2ZM470.896 556L472.356 545.66H474.076L473.806 547.65C474.04 547.157 474.326 546.75 474.666 546.43C475.006 546.103 475.38 545.86 475.786 545.7C476.2 545.54 476.616 545.46 477.036 545.46C477.176 545.46 477.313 545.47 477.446 545.49C477.58 545.51 477.68 545.543 477.746 545.59L477.496 547.38C477.41 547.333 477.293 547.303 477.146 547.29C477.006 547.27 476.886 547.26 476.786 547.26C476.26 547.22 475.77 547.277 475.316 547.43C474.87 547.577 474.496 547.827 474.196 548.18C473.896 548.533 473.703 548.997 473.616 549.57L472.716 556H470.896ZM485.724 556.2C485.091 556.2 484.548 556.083 484.094 555.85C483.641 555.61 483.311 555.267 483.104 554.82C482.898 554.373 482.838 553.833 482.924 553.2C483.084 552.053 483.584 551.2 484.424 550.64C485.271 550.08 486.534 549.78 488.214 549.74L489.934 549.69L490.054 548.88C490.148 548.22 490.018 547.713 489.664 547.36C489.318 547 488.811 546.82 488.144 546.82C487.604 546.827 487.091 546.973 486.604 547.26C486.118 547.547 485.774 547.987 485.574 548.58H483.984C484.104 547.98 484.364 547.447 484.764 546.98C485.171 546.507 485.684 546.137 486.304 545.87C486.931 545.597 487.641 545.46 488.434 545.46C489.281 545.46 489.971 545.597 490.504 545.87C491.038 546.143 491.411 546.53 491.624 547.03C491.844 547.523 491.904 548.107 491.804 548.78L490.764 556H489.234L489.354 554.12C488.854 554.927 488.298 555.477 487.684 555.77C487.071 556.057 486.418 556.2 485.724 556.2ZM486.454 554.87C486.781 554.87 487.114 554.807 487.454 554.68C487.794 554.553 488.111 554.383 488.404 554.17C488.698 553.95 488.944 553.707 489.144 553.44C489.344 553.167 489.464 552.887 489.504 552.6L489.764 550.83L488.344 550.86C487.611 550.873 486.984 550.953 486.464 551.1C485.951 551.247 485.548 551.477 485.254 551.79C484.961 552.103 484.774 552.513 484.694 553.02C484.614 553.6 484.741 554.053 485.074 554.38C485.408 554.707 485.868 554.87 486.454 554.87ZM497.871 556.2C496.985 556.2 496.231 555.997 495.611 555.59C494.991 555.183 494.545 554.583 494.271 553.79C494.005 552.997 493.951 552.023 494.111 550.87C494.271 549.79 494.585 548.847 495.051 548.04C495.518 547.227 496.121 546.593 496.861 546.14C497.601 545.687 498.451 545.46 499.411 545.46C500.131 545.46 500.751 545.603 501.271 545.89C501.791 546.17 502.191 546.57 502.471 547.09C502.751 547.61 502.885 548.223 502.871 548.93H501.271C501.271 548.57 501.191 548.24 501.031 547.94C500.871 547.64 500.638 547.4 500.331 547.22C500.031 547.04 499.658 546.95 499.211 546.95C498.385 546.95 497.661 547.27 497.041 547.91C496.428 548.55 496.028 549.53 495.841 550.85C495.668 552.043 495.771 553 496.151 553.72C496.538 554.433 497.191 554.79 498.111 554.79C498.558 554.79 498.958 554.7 499.311 554.52C499.671 554.333 499.971 554.09 500.211 553.79C500.458 553.483 500.631 553.157 500.731 552.81H502.301C502.121 553.503 501.815 554.103 501.381 554.61C500.948 555.117 500.428 555.51 499.821 555.79C499.221 556.063 498.571 556.2 497.871 556.2ZM508.321 556.2C507.434 556.2 506.681 555.997 506.061 555.59C505.441 555.183 504.994 554.583 504.721 553.79C504.454 552.997 504.401 552.023 504.561 550.87C504.721 549.79 505.034 548.847 505.501 548.04C505.967 547.227 506.571 546.593 507.311 546.14C508.051 545.687 508.901 545.46 509.861 545.46C510.581 545.46 511.201 545.603 511.721 545.89C512.241 546.17 512.641 546.57 512.921 547.09C513.201 547.61 513.334 548.223 513.321 548.93H511.721C511.721 548.57 511.641 548.24 511.481 547.94C511.321 547.64 511.087 547.4 510.781 547.22C510.481 547.04 510.107 546.95 509.661 546.95C508.834 546.95 508.111 547.27 507.491 547.91C506.877 548.55 506.477 549.53 506.291 550.85C506.117 552.043 506.221 553 506.601 553.72C506.987 554.433 507.641 554.79 508.561 554.79C509.007 554.79 509.407 554.7 509.761 554.52C510.121 554.333 510.421 554.09 510.661 553.79C510.907 553.483 511.081 553.157 511.181 552.81H512.751C512.571 553.503 512.264 554.103 511.831 554.61C511.397 555.117 510.877 555.51 510.271 555.79C509.671 556.063 509.021 556.2 508.321 556.2ZM518.79 556.2C517.883 556.2 517.12 555.997 516.5 555.59C515.88 555.177 515.437 554.573 515.17 553.78C514.91 552.987 514.857 552.017 515.01 550.87C515.163 549.79 515.47 548.843 515.93 548.03C516.39 547.217 516.987 546.587 517.72 546.14C518.46 545.687 519.313 545.46 520.28 545.46C521.187 545.46 521.943 545.67 522.55 546.09C523.163 546.503 523.6 547.113 523.86 547.92C524.12 548.727 524.17 549.71 524.01 550.87C523.863 551.923 523.563 552.85 523.11 553.65C522.657 554.45 522.067 555.077 521.34 555.53C520.62 555.977 519.77 556.2 518.79 556.2ZM519.01 554.74C519.59 554.74 520.1 554.583 520.54 554.27C520.987 553.957 521.353 553.507 521.64 552.92C521.927 552.333 522.123 551.637 522.23 550.83C522.33 550.09 522.327 549.427 522.22 548.84C522.12 548.247 521.893 547.777 521.54 547.43C521.193 547.083 520.703 546.91 520.07 546.91C519.477 546.91 518.957 547.067 518.51 547.38C518.063 547.687 517.697 548.133 517.41 548.72C517.123 549.307 516.923 550.01 516.81 550.83C516.717 551.557 516.72 552.217 516.82 552.81C516.927 553.403 517.157 553.873 517.51 554.22C517.863 554.567 518.363 554.74 519.01 554.74ZM529.213 556.2C528.706 556.193 528.236 556.117 527.803 555.97C527.37 555.817 526.996 555.593 526.683 555.3C526.376 555.007 526.153 554.643 526.013 554.21C525.88 553.77 525.853 553.26 525.933 552.68L526.913 545.66H528.733L527.773 552.49C527.673 553.163 527.79 553.71 528.123 554.13C528.456 554.55 529.02 554.76 529.813 554.76C530.526 554.76 531.126 554.563 531.613 554.17C532.106 553.77 532.406 553.177 532.513 552.39L533.463 545.66H535.263L533.803 556H532.383L532.463 554.02C532.276 554.54 532.013 554.96 531.673 555.28C531.34 555.6 530.96 555.837 530.533 555.99C530.113 556.137 529.673 556.207 529.213 556.2ZM536.873 556L538.373 545.66H540.113L539.923 547.1C540.143 546.807 540.406 546.54 540.713 546.3C541.026 546.06 541.386 545.87 541.793 545.73C542.206 545.583 542.673 545.51 543.193 545.51C543.82 545.51 544.37 545.653 544.843 545.94C545.323 546.22 545.68 546.633 545.913 547.18C546.146 547.727 546.203 548.4 546.083 549.2L545.103 556H543.293L544.253 549.38C544.373 548.627 544.26 548.05 543.913 547.65C543.573 547.243 543.093 547.04 542.473 547.04C542.04 547.04 541.62 547.113 541.213 547.26C540.813 547.407 540.473 547.63 540.193 547.93C539.92 548.23 539.75 548.603 539.683 549.05L538.673 556H536.873ZM551.139 556.05C550.452 556.05 549.932 555.953 549.579 555.76C549.232 555.567 549.009 555.28 548.909 554.9C548.816 554.52 548.809 554.053 548.889 553.5L549.819 547.01H548.219L548.429 545.66H550.049L550.819 542.65H552.259L551.829 545.65H554.049L553.849 547.01H551.629L550.719 553.37C550.646 553.923 550.689 554.273 550.849 554.42C551.016 554.567 551.309 554.64 551.729 554.64H552.809L552.629 555.88C552.502 555.927 552.312 555.967 552.059 556C551.812 556.033 551.506 556.05 551.139 556.05ZM183.03 584L184.49 573.66H186.24L184.79 584H183.03ZM184.74 571.47L185.01 569.55H186.86L186.59 571.47H184.74ZM191.523 584.2C190.837 584.2 190.213 584.09 189.653 583.87C189.1 583.643 188.66 583.293 188.333 582.82C188.013 582.34 187.857 581.73 187.863 580.99H189.503C189.53 581.397 189.64 581.737 189.833 582.01C190.027 582.277 190.283 582.48 190.603 582.62C190.93 582.753 191.3 582.82 191.713 582.82C192.367 582.82 192.913 582.69 193.353 582.43C193.793 582.17 194.05 581.77 194.123 581.23C194.177 580.85 194.113 580.547 193.933 580.32C193.753 580.087 193.447 579.917 193.013 579.81L191.063 579.28C190.297 579.08 189.707 578.767 189.293 578.34C188.88 577.913 188.723 577.317 188.823 576.55C188.903 575.943 189.117 575.41 189.463 574.95C189.81 574.49 190.28 574.127 190.873 573.86C191.473 573.593 192.187 573.46 193.013 573.46C194.093 573.46 194.927 573.713 195.513 574.22C196.107 574.72 196.35 575.457 196.243 576.43H194.643C194.65 575.937 194.497 575.547 194.183 575.26C193.87 574.967 193.413 574.82 192.813 574.82C192.193 574.82 191.67 574.953 191.243 575.22C190.817 575.48 190.567 575.887 190.493 576.44C190.44 576.807 190.537 577.097 190.783 577.31C191.037 577.517 191.423 577.69 191.943 577.83L193.823 578.35C194.263 578.477 194.62 578.643 194.893 578.85C195.167 579.057 195.37 579.287 195.503 579.54C195.643 579.793 195.73 580.06 195.763 580.34C195.797 580.613 195.793 580.877 195.753 581.13C195.667 581.763 195.44 582.31 195.073 582.77C194.713 583.223 194.23 583.577 193.623 583.83C193.023 584.077 192.323 584.2 191.523 584.2ZM207.835 584.2C206.455 584.2 205.385 583.967 204.625 583.5C203.872 583.027 203.378 582.357 203.145 581.49C202.912 580.623 202.882 579.59 203.055 578.39L204.355 569.54H207.305L205.955 578.61C205.848 579.33 205.875 579.92 206.035 580.38C206.202 580.833 206.472 581.17 206.845 581.39C207.218 581.61 207.672 581.72 208.205 581.72C208.998 581.72 209.688 581.473 210.275 580.98C210.862 580.487 211.232 579.697 211.385 578.61L212.715 569.54H215.635L214.325 578.49C214.145 579.657 213.805 580.67 213.305 581.53C212.812 582.383 212.118 583.043 211.225 583.51C210.332 583.97 209.202 584.2 207.835 584.2ZM221.863 584.2C221.156 584.2 220.473 584.113 219.813 583.94C219.159 583.767 218.576 583.503 218.063 583.15C217.556 582.797 217.159 582.347 216.873 581.8C216.593 581.253 216.469 580.61 216.503 579.87H219.523C219.549 580.31 219.676 580.68 219.903 580.98C220.136 581.28 220.446 581.51 220.833 581.67C221.226 581.83 221.676 581.91 222.183 581.91C222.703 581.91 223.186 581.843 223.633 581.71C224.079 581.577 224.449 581.377 224.743 581.11C225.043 580.837 225.223 580.497 225.283 580.09C225.336 579.723 225.273 579.423 225.093 579.19C224.913 578.957 224.653 578.767 224.313 578.62C223.973 578.473 223.579 578.353 223.133 578.26L220.763 577.75C219.709 577.543 218.913 577.11 218.373 576.45C217.839 575.783 217.643 574.897 217.783 573.79C217.909 572.883 218.266 572.1 218.853 571.44C219.439 570.773 220.176 570.26 221.063 569.9C221.949 569.54 222.909 569.36 223.943 569.36C225.063 569.36 226.006 569.57 226.773 569.99C227.546 570.41 228.126 570.953 228.513 571.62C228.899 572.287 229.069 572.993 229.023 573.74H226.063C226.089 573.233 226.003 572.83 225.803 572.53C225.603 572.23 225.316 572.013 224.943 571.88C224.576 571.747 224.146 571.68 223.653 571.68C223.146 571.68 222.696 571.757 222.303 571.91C221.909 572.057 221.593 572.263 221.353 572.53C221.119 572.797 220.979 573.103 220.933 573.45C220.873 573.87 220.959 574.21 221.193 574.47C221.433 574.73 221.913 574.943 222.633 575.11L224.973 575.62C225.833 575.793 226.496 576.05 226.963 576.39C227.436 576.73 227.769 577.113 227.963 577.54C228.163 577.967 228.273 578.403 228.293 578.85C228.313 579.29 228.296 579.697 228.243 580.07C228.136 580.85 227.793 581.553 227.213 582.18C226.639 582.8 225.893 583.293 224.973 583.66C224.053 584.02 223.016 584.2 221.863 584.2ZM239.78 584.2C238.093 584.2 236.773 583.853 235.82 583.16C234.867 582.46 234.423 581.383 234.49 579.93L237.5 579.87C237.56 580.53 237.817 581.033 238.27 581.38C238.73 581.72 239.347 581.89 240.12 581.89C240.58 581.89 240.997 581.813 241.37 581.66C241.75 581.5 242.06 581.287 242.3 581.02C242.54 580.747 242.683 580.437 242.73 580.09C242.817 579.557 242.713 579.16 242.42 578.9C242.133 578.633 241.66 578.42 241 578.26L238.78 577.75C237.74 577.53 236.947 577.093 236.4 576.44C235.86 575.78 235.667 574.897 235.82 573.79C235.947 572.883 236.3 572.1 236.88 571.44C237.467 570.773 238.203 570.26 239.09 569.9C239.977 569.54 240.94 569.36 241.98 569.36C243.04 569.36 243.93 569.557 244.65 569.95C245.37 570.337 245.89 570.86 246.21 571.52C246.537 572.173 246.63 572.897 246.49 573.69L243.57 573.74C243.577 573.313 243.523 572.947 243.41 572.64C243.297 572.333 243.103 572.097 242.83 571.93C242.557 571.763 242.17 571.68 241.67 571.68C241.157 571.68 240.707 571.757 240.32 571.91C239.933 572.057 239.62 572.263 239.38 572.53C239.147 572.797 239.007 573.103 238.96 573.45C238.9 573.87 238.987 574.203 239.22 574.45C239.46 574.69 239.94 574.913 240.66 575.12L242.84 575.69C244.067 576.003 244.907 576.54 245.36 577.3C245.813 578.06 245.96 578.983 245.8 580.07C245.68 580.903 245.35 581.63 244.81 582.25C244.277 582.87 243.577 583.35 242.71 583.69C241.85 584.03 240.873 584.2 239.78 584.2ZM238.25 585.91L238.63 583.31H241.12L240.73 585.91H238.25ZM240.64 570.07L241.03 567.47H243.52L243.13 570.07H240.64ZM249.511 584L251.131 573.17H248.621L248.861 571.52C249.668 571.52 250.331 571.443 250.851 571.29C251.378 571.13 251.784 570.903 252.071 570.61C252.364 570.31 252.568 569.953 252.681 569.54H254.581L252.431 584H249.511ZM261.028 584.22C259.314 584.22 258.064 583.583 257.278 582.31C256.498 581.037 256.274 579.203 256.608 576.81C256.828 575.21 257.238 573.853 257.838 572.74C258.438 571.627 259.188 570.783 260.088 570.21C260.988 569.63 262.001 569.34 263.128 569.34C264.821 569.34 266.061 569.983 266.848 571.27C267.641 572.55 267.868 574.393 267.528 576.8C267.188 579.193 266.448 581.03 265.308 582.31C264.168 583.583 262.741 584.22 261.028 584.22ZM261.368 581.83C262.201 581.83 262.864 581.447 263.358 580.68C263.851 579.907 264.224 578.617 264.478 576.81C264.738 574.963 264.728 573.64 264.448 572.84C264.168 572.04 263.614 571.64 262.788 571.64C261.961 571.64 261.291 572.043 260.778 572.85C260.271 573.657 259.884 574.977 259.618 576.81C259.371 578.61 259.391 579.897 259.678 580.67C259.964 581.443 260.528 581.83 261.368 581.83ZM274.595 584L275.075 580.8H268.625L268.985 578.4L276.675 569.54H279.505L278.215 578.35H280.365L279.995 580.8H277.825L277.355 584H274.595ZM271.655 578.35H275.445L276.225 573.05L271.655 578.35ZM281.127 584L281.617 580.82H284.757L284.277 584H281.127ZM291.568 584.22C290.682 584.22 289.878 584.047 289.158 583.7C288.445 583.353 287.892 582.867 287.498 582.24C287.105 581.607 286.942 580.867 287.008 580.02H289.758C289.798 580.58 289.992 581.037 290.338 581.39C290.692 581.737 291.172 581.91 291.778 581.91C292.445 581.91 293.055 581.747 293.608 581.42C294.162 581.093 294.615 580.573 294.968 579.86C295.328 579.147 295.552 578.213 295.638 577.06C295.405 577.413 295.108 577.723 294.748 577.99C294.395 578.25 293.992 578.453 293.538 578.6C293.092 578.74 292.608 578.81 292.088 578.81C291.128 578.81 290.305 578.627 289.618 578.26C288.932 577.887 288.425 577.36 288.098 576.68C287.772 575.993 287.675 575.18 287.808 574.24C287.942 573.293 288.282 572.45 288.828 571.71C289.375 570.97 290.078 570.39 290.938 569.97C291.798 569.55 292.762 569.34 293.828 569.34C295.035 569.34 296.032 569.633 296.818 570.22C297.605 570.8 298.155 571.627 298.468 572.7C298.788 573.767 298.845 575.023 298.638 576.47C298.398 578.197 297.958 579.637 297.318 580.79C296.678 581.937 295.868 582.797 294.888 583.37C293.915 583.937 292.808 584.22 291.568 584.22ZM292.908 576.49C293.302 576.49 293.695 576.4 294.088 576.22C294.488 576.033 294.828 575.8 295.108 575.52C295.388 575.24 295.548 574.95 295.588 574.65C295.682 574.003 295.658 573.45 295.518 572.99C295.385 572.523 295.152 572.167 294.818 571.92C294.492 571.673 294.088 571.55 293.608 571.55C293.168 571.55 292.758 571.657 292.378 571.87C291.998 572.083 291.682 572.383 291.428 572.77C291.175 573.157 291.012 573.603 290.938 574.11C290.832 574.863 290.962 575.45 291.328 575.87C291.702 576.283 292.228 576.49 292.908 576.49ZM304.719 584.22C303.006 584.22 301.756 583.583 300.969 582.31C300.189 581.037 299.966 579.203 300.299 576.81C300.519 575.21 300.929 573.853 301.529 572.74C302.129 571.627 302.879 570.783 303.779 570.21C304.679 569.63 305.692 569.34 306.819 569.34C308.512 569.34 309.752 569.983 310.539 571.27C311.332 572.55 311.559 574.393 311.219 576.8C310.879 579.193 310.139 581.03 308.999 582.31C307.859 583.583 306.432 584.22 304.719 584.22ZM305.059 581.83C305.892 581.83 306.556 581.447 307.049 580.68C307.542 579.907 307.916 578.617 308.169 576.81C308.429 574.963 308.419 573.64 308.139 572.84C307.859 572.04 307.306 571.64 306.479 571.64C305.652 571.64 304.982 572.043 304.469 572.85C303.962 573.657 303.576 574.977 303.309 576.81C303.062 578.61 303.082 579.897 303.369 580.67C303.656 581.443 304.219 581.83 305.059 581.83ZM312.175 584L312.525 581.64H314.655L314.305 584H312.175Z" fill="#36536B"/>
</g>
</g>
<defs>
<filter id="filter0_d_0_4910" x="1.13574" y="1.13892" width="835.299" height="1317.72" filterUnits="userSpaceOnUse" color-interpolation-filters="sRGB">
<feFlood flood-opacity="0" result="BackgroundImageFix"/>
<feColorMatrix in="SourceAlpha" type="matrix" values="0 0 0 0 0 0 0 0 0 0 0 0 0 0 0 0 0 0 127 0" result="hardAlpha"/>
<feOffset dx="25" dy="25"/>
<feGaussianBlur stdDeviation="40"/>
<feColorMatrix type="matrix" values="0 0 0 0 0.212302 0 0 0 0 0.32521 0 0 0 0 0.419299 0 0 0 0.300727 0"/>
<feBlend mode="normal" in2="BackgroundImageFix" result="effect1_dropShadow_0_4910"/>
<feBlend mode="normal" in="SourceGraphic" in2="effect1_dropShadow_0_4910" result="shape"/>
</filter>
<filter id="filter1_d_0_4910" x="140" y="434" width="496" height="234" filterUnits="userSpaceOnUse" color-interpolation-filters="sRGB">
<feFlood flood-opacity="0" result="BackgroundImageFix"/>
<feColorMatrix in="SourceAlpha" type="matrix" values="0 0 0 0 0 0 0 0 0 0 0 0 0 0 0 0 0 0 127 0" result="hardAlpha"/>
<feMorphology radius="10" operator="erode" in="SourceAlpha" result="effect1_dropShadow_0_4910"/>
<feOffset dx="10" dy="10"/>
<feGaussianBlur stdDeviation="12.5"/>
<feColorMatrix type="matrix" values="0 0 0 0 0.212302 0 0 0 0 0.32521 0 0 0 0 0.419299 0 0 0 0.25 0"/>
<feBlend mode="normal" in2="BackgroundImageFix" result="effect1_dropShadow_0_4910"/>
<feBlend mode="normal" in="SourceGraphic" in2="effect1_dropShadow_0_4910" result="shape"/>
</filter>
<linearGradient id="paint0_linear_0_4910" x1="126.029" y1="110" x2="126.029" y2="134.648" gradientUnits="userSpaceOnUse">
<stop stop-color="#454545"/>
<stop offset="0.226279" stop-color="#999999"/>
<stop offset="1" stop-color="white"/>
</linearGradient>
<linearGradient id="paint1_linear_0_4910" x1="626.207" y1="281.495" x2="607.285" y2="281.495" gradientUnits="userSpaceOnUse">
<stop stop-color="white" stop-opacity="0.01"/>
<stop offset="0.222178" stop-color="#BABABA"/>
<stop offset="0.54678" stop-color="white" stop-opacity="0.01"/>
<stop offset="1" stop-color="white" stop-opacity="0.01"/>
</linearGradient>
<linearGradient id="paint2_linear_0_4910" x1="111.136" y1="280.974" x2="130.088" y2="280.974" gradientUnits="userSpaceOnUse">
<stop stop-color="white" stop-opacity="0.01"/>
<stop offset="0.222178" stop-color="#BABABA"/>
<stop offset="0.54678" stop-color="white" stop-opacity="0.01"/>
<stop offset="1" stop-color="white" stop-opacity="0.01"/>
</linearGradient>
<linearGradient id="paint3_linear_0_4910" x1="137.814" y1="134.889" x2="137.814" y2="1057.65" gradientUnits="userSpaceOnUse">
<stop stop-color="#9CB6CD"/>
<stop offset="0.420564" stop-color="#9AB3CA"/>
<stop offset="0.716592" stop-color="#557496"/>
<stop offset="1" stop-color="#475178"/>
</linearGradient>
<clipPath id="clip0_0_4910">
<rect width="233" height="465" fill="white" transform="matrix(2 0 0 2 136.148 134.889)"/>
</clipPath>
<clipPath id="clip1_0_4910">
<rect width="218" height="87" fill="white" transform="matrix(2 0 0 2 150 444)"/>
</clipPath>
<clipPath id="clip2_0_4910">
<rect width="187" height="11" fill="white" transform="matrix(2 0 0 2 182 476)"/>
</clipPath>
</defs>
</svg>
